<?xml version="1.0" encoding="UTF-8" standalone="no"?><!DOCTYPE svg PUBLIC "-//W3C//DTD SVG 1.1//EN" "http://www.w3.org/Graphics/SVG/1.1/DTD/svg11.dtd"><svg width="100%" height="100%" viewBox="0 0 400 312" version="1.1" xmlns="http://www.w3.org/2000/svg" xmlns:xlink="http://www.w3.org/1999/xlink" xml:space="preserve" xmlns:serif="http://www.serif.com/" style="fill-rule:evenodd;clip-rule:evenodd;stroke-linejoin:round;stroke-miterlimit:2;"><rect id="Mesa-de-trabajo1" serif:id="Mesa de trabajo1" x="0" y="0" width="400" height="312" style="fill:none;"/><clipPath id="_clip1"><rect id="Mesa-de-trabajo11" serif:id="Mesa de trabajo1" x="0" y="0" width="400" height="312"/></clipPath><g clip-path="url(#_clip1)"><g id="Grupo_58404"><g id="Grupo_58403"><rect id="Rectángulo_5287" x="0" y="191" width="400" height="121" style="fill:#ff4b52;"/><circle id="Elipse_4134" cx="206" cy="177" r="111" style="fill:#ddffa7;"/><g id="Grupo_54963"><g id="OBJECTS"><g id="Grupo_54952"><g id="Grupo_54941"><path id="Trazado_101266" d="M216.949,287.7c-2.308,3.089 -5.818,4.6 -10.41,1.83c-7.124,-4.291 -21.359,-45.091 -21.359,-45.091c-1.922,3.509 -4.63,6.526 -7.911,8.815l-1.7,11.188c0,0 6.668,17.969 11.019,28.028c2.653,6.117 5.79,12.012 9.38,17.63l23.393,0c0,0 -0.446,-9.109 -2.412,-22.4Z" style="fill:#091a2e;fill-rule:nonzero;"/><path id="Trazado_101267" d="M169.471,227.712c13.318,-1.315 23.34,-8.189 27.818,-11.839c-1.686,-4.309 -2.673,-6.469 -2.673,-6.469l-44.188,-0c0,-0 -5.888,6.609 -11.551,25.99c23.077,9.363 30.594,-7.682 30.594,-7.682Z" style="fill:#091a2e;fill-rule:nonzero;"/><path id="Trazado_101268" d="M185.179,244.438c0,-0 14.239,40.8 21.359,45.092c4.592,2.771 8.1,1.259 10.41,-1.83c-1.686,-11.628 -4.125,-23.135 -7.3,-34.447c-5.15,-18.026 -9.655,-30.472 -12.358,-37.38c-4.478,3.651 -14.5,10.524 -27.818,11.839c0,-0 -7.517,17.042 -30.594,7.681c-1.108,3.794 -2.208,8.067 -3.253,12.887c-6.385,29.44 4.407,61.818 4.407,61.818l24.865,-0c-0,-0 8.532,-30.175 10.679,-45.658l1.7,-11.188c3.278,-2.289 5.983,-5.306 7.903,-8.814Zm-33.339,52.212c-0.735,3.391 -4.295,5.82 -6.442,5.425c-2.147,-0.395 -4.294,-12.092 -4.859,-24.976c-0.565,-12.884 3.616,-36.673 5.537,-36.051c1.921,0.622 1.356,11.188 1.921,22.263c0.565,11.075 4.388,30.824 3.843,33.339Z" style="fill:#12263f;fill-rule:nonzero;"/><path id="Trazado_101269" d="M146.077,241.048c-1.921,-0.622 -6.1,23.168 -5.537,36.051c0.563,12.883 2.712,24.58 4.859,24.976c2.147,0.396 5.708,-2.034 6.442,-5.425c0.545,-2.515 -3.278,-22.263 -3.842,-33.339c-0.564,-11.076 0,-21.641 -1.922,-22.263Z" style="fill:#727997;fill-rule:nonzero;"/></g><g id="Grupo_54945"><g id="Grupo_54942"><path id="Trazado_101270" d="M335.845,35.44c-5.5,3.315 -4.747,13.033 3.767,11.678c8.514,-1.355 7.384,-8.966 7.384,-8.966l18.824,-7.894l1.367,-2.052l-1.167,-0.161l-19.778,8.6c0,-0 -4.898,-4.52 -10.397,-1.205Z" style="fill-rule:nonzero;"/><path id="Trazado_101271" d="M346.996,38.152c0,-0 1.13,7.609 -7.384,8.966c-8.514,1.357 -9.267,-8.363 -3.766,-11.678c5.501,-3.315 10.4,1.205 10.4,1.205l19.777,-8.6l-38.236,-5.264l-5.124,10.849l-21.348,-0c10.376,7.894 28.757,16.69 38.525,15.407c5.65,-0.742 13.372,-5.114 19.636,-9.262l6.346,-9.518l-18.826,7.895Z" style="fill:#d0d4dd;fill-rule:nonzero;"/><path id="Trazado_101272" d="M301.315,33.632l17.054,40.61l16.873,-17.834l10.7,3.67l13.533,-20.3c-6.263,4.148 -13.986,8.521 -19.636,9.262c-9.769,1.282 -28.15,-7.514 -38.524,-15.408Z" style="fill:#acb2bc;fill-rule:nonzero;"/></g><g id="Grupo_54943"><path id="Trazado_101273" d="M315.244,44.871c-6.043,-10.378 -16.433,-16.616 -18.954,-16.783c-2.938,-0.2 -10.849,5.243 -13.411,7.5c-2.562,2.257 -1.448,6.439 -1.448,6.439l7.727,14.945c7.028,-1.9 14.341,-4.181 17.906,-6.24c2.854,-1.769 5.587,-3.727 8.18,-5.861Z" style="fill:#ffd150;fill-rule:nonzero;"/><path id="Trazado_101274" d="M315.244,44.87c-2.593,2.135 -5.325,4.094 -8.18,5.864c-3.565,2.059 -10.878,4.34 -17.906,6.24l12.83,24.814c-0,-0 3.494,2.624 5.853,2.926c2.359,0.302 11.429,-3.014 12.559,-5.666c1.13,-2.652 2.411,-15.053 -2.562,-28.691c-0.7,-1.902 -1.568,-3.739 -2.594,-5.487Z" style="fill:#ffa440;fill-rule:nonzero;"/></g><g id="Grupo_54944"><path id="Trazado_101275" d="M302.656,55.478c-2.473,-5.103 -5.876,-9.7 -10.034,-13.555c0.076,9.619 0,18.51 -0.476,20.336c-1.13,4.295 -193.366,91.428 -208.849,94.931c-7.759,1.756 -9.188,-1.058 -8.413,-4.6c-3.566,2.068 -5.627,3.361 -5.826,3.7c-2.148,3.616 -3.391,8.7 -2.487,10.849c0.904,2.149 5.651,5.2 12.206,3.843c6.555,-1.357 219.81,-86.221 228.964,-91.932c0.001,-0.002 1.244,-10.911 -5.085,-23.572Z" style="fill:#44217c;fill-rule:nonzero;"/><path id="Trazado_101276" d="M83.298,157.191c15.483,-3.5 207.718,-90.636 208.848,-94.931c0.48,-1.825 0.552,-10.716 0.476,-20.335c-1.382,-1.301 -2.906,-2.442 -4.545,-3.4c-1.639,-0.958 -178.405,93.902 -213.192,114.066c-0.775,3.543 0.654,6.357 8.413,4.6Z" style="fill:#803ece;fill-rule:nonzero;"/></g></g><g id="Grupo_54951"><g id="Grupo_54950"><g id="Grupo_54946"><path id="Trazado_101277" d="M223.058,64.898c0,0 9.455,-12.846 -5.425,-18.082c3.156,-3.237 5.202,-7.395 5.841,-11.87c-1.093,-2.911 -2.9,-5.654 -5.916,-6.859c-7.8,-3.119 -11.188,-0 -11.188,-0c0,-0 -0.9,-5.832 -5.764,-6.736c-4.864,-0.904 -8.024,3.278 -8.024,3.278c0,-0 -6.724,-12.375 -19.778,-10.511c-7.24,0.707 -12.914,6.701 -13.223,13.969c-1.758,-2.184 -4.96,-2.615 -7.233,-0.973c-4.351,2.769 -2.487,7.719 -2.487,7.719c0,-0 -10.623,-4.724 -17.63,2.792c-7.007,7.516 -2.712,18.081 -2.712,18.081c0,-0 -5.537,-1.186 -7.8,2.487c-2.263,3.673 -0,8.363 -0,8.363c-0,-0 -7.063,0.057 -8.815,5.651c-1.752,5.594 -0,8.589 -0,8.589c-0,-0 -4.3,-3.361 -5.016,-12.133c-1.553,3.226 -2.164,6.826 -1.764,10.384c1.281,13.8 13.712,15.384 13.712,15.384c-0,0 -4.295,11.637 10.85,10.49c-0,0 1.318,12.941 14.6,11.058c-0,0 5.293,7.551 13.58,2.457c8.287,-5.094 9.192,-10.519 9.192,-10.519c-0,0 2.9,7.459 10,7.609c4.026,0.163 7.705,-2.362 9,-6.178c5.41,2.304 11.627,1.767 16.562,-1.431c8.514,-5.425 7.082,-14.994 7.082,-14.994c-0,0 8.288,0 13.561,-5.876c5.273,-5.876 3.089,-18.382 -1.205,-22.149Zm-27.2,-28.4c-3.226,0.2 -6.205,1.814 -8.136,4.406c-1.931,2.592 -0.413,-4.351 -4.049,-4.972c-3.636,-0.621 -5.9,2.825 -5.9,2.825c-0,0 -1.411,-7.459 -7.91,-4.747c-0,0 4.726,-6.894 9.266,-2.487c-0,0 2.2,-4.577 7.177,-3.164c4.977,1.413 4.916,5.65 4.916,5.65c-0,0 9.211,-6.724 11.527,7.572c0.004,-0.002 -1.578,-5.313 -6.89,-5.087l-0.001,0.004Z" style="fill-rule:nonzero;"/><path id="Trazado_101278" d="M112.909,80.796c-0,-0 -1.751,-2.995 -0,-8.589c1.751,-5.594 8.815,-5.651 8.815,-5.651c-0,-0 -2.26,-4.689 -0,-8.363c2.26,-3.674 7.8,-2.487 7.8,-2.487c0,-0 -4.295,-10.567 2.712,-18.081c7.007,-7.514 17.63,-2.792 17.63,-2.792c0,-0 -1.864,-4.95 2.487,-7.719c2.273,-1.642 5.475,-1.211 7.233,0.973c0.309,-7.268 5.983,-13.262 13.223,-13.969c13.053,-1.865 19.778,10.511 19.778,10.511c0,-0 3.164,-4.182 8.024,-3.278c4.86,0.904 5.764,6.736 5.764,6.736c0,-0 3.39,-3.119 11.188,-0c3.011,1.205 4.823,3.948 5.916,6.859c0.342,-2.634 0.149,-5.311 -0.567,-7.869c-3.24,-11.829 -17.479,-7.535 -17.479,-7.535c0,-0 -1.055,-7.158 -6.178,-8.439c-5.123,-1.281 -8.589,2.822 -8.589,2.822c0,0 1.657,-15.328 -17.479,-13.822c-19.136,1.506 -19.438,13.822 -19.438,13.822c0,0 -3.993,-4.329 -8.74,-1.767c-4.747,2.562 -3.617,8.137 -3.617,8.137c0,0 -14.315,-4.068 -20.945,8.966c-6.63,13.034 2.26,20.869 2.26,20.869c-0,0 -6.63,-1.054 -8.287,3.316c-0.994,2.432 -0.18,5.253 1.959,6.78c-3.663,1.822 -6.64,4.783 -8.482,8.436c0.712,8.773 5.012,12.134 5.012,12.134Z" style="fill:#2b2b2b;fill-rule:nonzero;"/><path id="Trazado_101279" d="M191.226,34.008c-0,-0 0.057,-4.238 -4.916,-5.65c-4.973,-1.412 -7.177,3.164 -7.177,3.164c-4.54,-4.407 -9.266,2.487 -9.266,2.487c6.5,-2.712 7.91,4.747 7.91,4.747c-0,-0 2.26,-3.447 5.9,-2.825c3.64,0.622 4.049,4.972 4.049,4.972c1.931,-2.593 4.91,-4.207 8.137,-4.407c5.312,-0.226 6.894,5.085 6.894,5.085c-2.321,-14.297 -11.531,-7.573 -11.531,-7.573Z" style="fill:#2b2b2b;fill-rule:nonzero;"/></g><g id="Grupo_54947"><path id="Trazado_101280" d="M172.409,136.17c7.178,-1.716 9.928,-7.422 10.983,-11.515c-1.344,0.162 -2.705,0.107 -4.032,-0.162c-1.968,-0.675 -3.406,-3.364 -4.05,-6.313c-4.991,1.026 -9.192,-1.337 -12.2,-4.06c-0.827,3.559 -1.811,6.812 -2.907,8.565c-1.245,1.993 -3.893,3.7 -7.256,5.558c3.789,4.259 10.934,9.966 19.462,7.927Z" style="fill:#c16240;fill-rule:nonzero;"/><path id="Trazado_101281" d="M175.31,118.181c-0.219,-0.996 -0.344,-2.011 -0.372,-3.03c-0.1,-3.918 1.258,-14.767 1.258,-14.767l-10.4,-1.808c-0,0 -1.025,8.394 -2.688,15.544c3.01,2.723 7.21,5.087 12.202,4.061Z" style="fill:#893820;fill-rule:nonzero;"/><path id="Trazado_101282" d="M168.228,197.199c-4.272,6.333 -6.406,15.5 -7.36,20.953c4.411,0.787 8.909,0.961 13.368,0.519c11.226,-1.431 22.527,-5.349 23.356,-6.931c0.829,-1.582 -0.679,-21.4 -2.561,-31.946c-0.258,-1.448 -0.484,-2.732 -0.683,-3.893c-7.258,4.043 -19.818,11.955 -26.12,21.298Z" style="fill:#ffd150;fill-rule:nonzero;"/><path id="Trazado_101283" d="M210.1,118.438c-1.665,0.614 -3.327,1.178 -4.968,1.7c5.656,-0.188 11.292,-0.756 16.872,-1.7c13.034,-2.383 20.794,-6.443 20.794,-6.443c-0,-0 -2.863,8.054 -15.37,14.458c-0,-0 -19.287,9.592 -34.959,10.146c-0,0 8.411,6.567 8.288,12.457c-0,0 27.267,-11.754 40,-21.247c12.733,-9.493 16.653,-18.459 18.16,-22.3c0.861,-2.152 1.574,-4.361 2.133,-6.611c0.559,-2.25 -36.787,14.312 -50.95,19.54Z" style="fill:#ffa440;fill-rule:nonzero;"/><path id="Trazado_101284" d="M192.469,136.598c15.671,-0.554 34.959,-10.146 34.959,-10.146c12.507,-6.4 15.37,-14.458 15.37,-14.458c0,-0 -7.76,4.06 -20.794,6.443c-5.58,0.944 -11.216,1.512 -16.872,1.7c-7.057,2.307 -14.348,3.823 -21.74,4.521c-1.055,4.094 -3.8,9.8 -10.983,11.515c-8.528,2.038 -15.673,-3.67 -19.461,-7.929c-5.538,3.067 -13.022,6.571 -19.4,12.524c-10.247,9.569 -28.253,43.02 -31.342,50.027c-3.089,7.007 4.972,16.952 11.151,22.791c6.179,5.839 19.664,10.209 20.945,9.154c1.281,-1.055 7.158,-11.377 6.781,-12.959c-0.377,-1.582 -15.22,-16.425 -15.22,-16.425c0,-0 18.189,-20.488 21.906,-24.071l6.329,-6.1c1.236,0.953 2.561,1.785 3.955,2.486c2.43,1.244 13.053,2.43 25.428,-1.356c6.245,-2.034 12.06,-5.21 17.147,-9.365c0.073,-0.555 0.114,-1.113 0.125,-1.672l0,-4.219c0.127,-5.894 -8.284,-12.461 -8.284,-12.461Z" style="fill:#ffd150;fill-rule:nonzero;"/><path id="Trazado_101285" d="M158.057,165.668c-1.394,-0.701 -2.719,-1.533 -3.955,-2.486l-6.329,6.1c-0,0 4.313,9.832 3.861,19.551c-0.452,9.719 -5.575,23.13 -5.124,24.75c0.285,1.022 6.783,3.348 14.358,4.567c0.954,-5.456 3.087,-14.62 7.36,-20.953c6.3,-9.343 18.862,-17.255 26.12,-21.3c-1.255,-7.3 -1.427,-9.216 -1.427,-9.216c-0,0 6.709,-4.017 7.71,-11.739c-5.087,4.155 -10.901,7.331 -17.147,9.365c-12.374,3.789 -22.998,2.605 -25.427,1.361Z" style="fill:#ffa440;fill-rule:nonzero;"/></g><path id="Trazado_101286" d="M155.797,54.916c1.164,2.464 1.52,5.233 1.017,7.911c-0.961,4.012 -5.764,6.668 -5.764,6.668c-0,0 2.185,3.56 3.014,10.962c0.829,7.402 -0.641,9.833 -0.641,9.833c-0,-0 -5.029,-10 -12.883,-8.7c-7.854,1.3 -6.216,10.68 -0.9,13.788c5.316,3.108 10.962,4.012 14.466,0c-0,0 2.147,7.233 6.78,9.719c4.633,2.486 21.642,7.12 26.219,6.894c4.577,-0.226 15.314,-9.324 17.178,-22.038c1.864,-12.714 -5.312,-30.4 -5.312,-30.4c-2.152,1.998 -5.2,2.728 -8.023,1.921c-4.86,-1.356 -6.216,-7.12 -6.216,-7.12c-0,-0 -2.995,3.164 -4.86,2.825c-1.706,-0.457 -2.853,-2.082 -2.712,-3.843c0.141,-1.761 -4.182,2.43 -8.363,0.791c-4.181,-1.639 -4.295,-8.024 -4.295,-8.024c-0,-0 0.109,7.853 -8.705,8.813Z" style="fill:#c16240;fill-rule:nonzero;"/><g id="Grupo_54949"><g id="Grupo_54948"><path id="Trazado_101287" d="M178.426,103.837c-2.37,0.665 -4.9,0.484 -7.151,-0.512c-4.226,-1.834 -5.978,-5.97 -6.621,-9.744c3.643,-0.173 11.33,0.664 13.772,10.256Z" style="fill:#ff888e;fill-rule:nonzero;"/><path id="Trazado_101288" d="M164.686,86.021c0.436,-0.873 6.707,0.675 11.192,2.62c3.6,1.56 9.4,4.247 11.548,5.247c0.502,0.226 0.754,0.804 0.578,1.326c-0.142,0.388 -0.309,0.766 -0.5,1.132c-5.455,-1.1 -16.164,-3.738 -23.118,-8.446c0.021,-0.636 0.122,-1.268 0.3,-1.879Z" style="fill:#fff;fill-rule:nonzero;"/><path id="Trazado_101289" d="M164.39,87.899c6.954,4.708 17.663,7.341 23.118,8.446c-1.92,3.596 -5.187,6.291 -9.082,7.493c-2.442,-9.592 -10.129,-10.429 -13.772,-10.256c-0.313,-1.877 -0.402,-3.785 -0.264,-5.683Z" style="fill-rule:nonzero;"/></g><path id="Trazado_101290" d="M189.773,80.797c-1.092,0.08 1.111,3.562 0.952,5.009c-0.159,1.447 -1.784,2.349 -1.249,2.552c0.535,0.203 4.9,1.289 4.187,-2.051c-0.713,-3.34 -3.136,-5.566 -3.89,-5.51Z" style="fill:#893820;fill-rule:nonzero;"/><path id="Trazado_101291" d="M190.21,75.053c2.029,-0.292 0.567,-6.127 -1.2,-5.646c-1.767,0.481 -0.83,5.936 1.2,5.646Z" style="fill-rule:nonzero;"/><path id="Trazado_101292" d="M167.368,77.715c2.029,-0.292 0.568,-6.127 -1.2,-5.646c-1.768,0.481 -0.83,5.937 1.2,5.646Z" style="fill-rule:nonzero;"/><path id="Trazado_101293" d="M150.029,89.987c0,0 -2.54,-0.154 -3.1,1.411c-0.56,1.565 1.548,2.956 1.548,2.956c0,0 -5.635,-0.763 -6.945,-4.37c-1.31,-3.607 4.726,-5.712 8.497,0.003Z" style="fill:#893820;fill-rule:nonzero;"/><path id="Trazado_101294" d="M193.706,65.801c0.538,-1.253 -2.621,-4.407 -3.852,-4.106c-1.231,0.301 -1.381,1.642 -1.109,2.591c0.272,0.949 4.253,3.153 4.961,1.515Z" style="fill-rule:nonzero;"/><path id="Trazado_101295" d="M163.497,67.211c1.089,0.82 4.905,-1.5 4.906,-2.764c0.001,-1.264 -1.267,-1.732 -2.253,-1.694c-0.986,0.038 -4.076,3.385 -2.653,4.458Z" style="fill-rule:nonzero;"/></g></g><path id="Trazado_101296" d="M140.734,211.407c2.376,1.346 5.044,2.094 7.773,2.179c4.181,-0 7.007,-0.226 8.928,1.13c1.921,1.356 6.894,10.679 5.537,11.979c-1.357,1.3 -4.407,-3.673 -6.216,-6.1c0,-0 3.729,7.572 1.7,9.493c-2.029,1.921 -6.558,-7.8 -6.558,-7.8c0,-0 3.394,9.154 1.247,10.623c-2.147,1.469 -4.182,-3.56 -5.086,-6.1l-0.9,-2.543c-2.417,0.246 -4.858,0.111 -7.233,-0.4c-3.052,-0.847 -4.747,-6.329 -4.747,-6.329l5.555,-6.132Z" style="fill:#c16240;fill-rule:nonzero;"/></g><path id="Trazado_101297" d="M260.842,54.916c0,0 -2.11,8.513 -6.1,8.438c-3.99,-0.075 2.3,-10.321 4.068,-13.561c1.408,-2.792 3.97,-4.831 7.007,-5.575c2.637,-0.6 12.754,-0.678 12.754,-0.678l-5.768,3.041c-0,0 -0.7,11.8 -3.369,13.232c-2.669,1.432 -2.186,-6.856 -2.186,-6.856c0,0 -1.732,8.777 -4.369,9.493c-2.637,0.716 -2.037,-7.534 -2.037,-7.534Z" style="fill:#c16240;fill-rule:nonzero;"/></g><g id="Grupo_54956"><g id="Grupo_54953"><path id="Trazado_101298" d="M305.877,159.843c0.84,2.293 3.418,3.49 5.711,2.65l10.353,-3.788c1.751,-0.64 2.922,-2.316 2.922,-4.18c0,-0.522 -0.092,-1.04 -0.271,-1.53l-4.589,-12.543l-18.714,6.847l4.588,12.544Zm7.925,-7.339c0.264,-0.096 0.542,-0.145 0.823,-0.145c1.316,-0 2.4,1.083 2.4,2.4c-0,1.316 -1.084,2.4 -2.4,2.4c-1.004,-0 -1.907,-0.631 -2.253,-1.573c-0.098,-0.265 -0.148,-0.546 -0.148,-0.829c0,-1.005 0.632,-1.909 1.577,-2.254l0.001,0.001Z" style="fill:#d0d4dd;fill-rule:nonzero;"/><path id="Trazado_101299" d="M309.199,110.916c-0.641,-1.751 -2.316,-2.922 -4.181,-2.922c-0.522,-0 -1.04,0.092 -1.53,0.271l-10.353,3.787c-2.293,0.84 -3.49,3.417 -2.651,5.711l1.433,3.915l18.715,-6.847l-1.433,-3.915Z" style="fill:#d0d4dd;fill-rule:nonzero;"/><path id="Rectángulo_5486" d="M315.196,127.312l-18.715,6.847l4.808,13.14l18.714,-6.847l-4.807,-13.14Z" style="fill:#c40a4d;"/><path id="Rectángulo_5487" d="M310.628,114.828l-18.712,6.855l4.57,12.475l18.712,-6.856l-4.57,-12.474Z" style="fill:#ff485e;"/><path id="Trazado_101300" d="M315.453,157.015c0.942,-0.346 1.573,-1.249 1.573,-2.253c-0,-1.316 -1.084,-2.4 -2.4,-2.4c-1.317,0 -2.4,1.084 -2.4,2.4c-0,0.281 0.049,0.559 0.145,0.823c0.345,0.945 1.249,1.577 2.255,1.577c0.282,0 0.562,-0.05 0.827,-0.147Z" style="fill:#2b2b2b;fill-rule:nonzero;"/></g><g id="Grupo_54954"><path id="Trazado_101301" d="M302.697,148.699c-0.273,0.588 -0.414,1.228 -0.414,1.876c-0,1.729 1.008,3.309 2.577,4.037l10,4.642c2.215,1.028 4.884,0.052 5.913,-2.163l5.624,-12.114l-18.075,-8.391l-5.625,12.113Zm10.793,0.415c0.845,0.393 1.388,1.244 1.388,2.176c-0,1.317 -1.084,2.4 -2.4,2.4c-1.317,0 -2.4,-1.083 -2.4,-2.4c-0,-0.348 0.075,-0.693 0.222,-1.009c0.392,-0.847 1.244,-1.392 2.178,-1.392c0.35,0 0.695,0.077 1.012,0.224l0,0.001Z" style="fill:#dfe2ea;fill-rule:nonzero;"/><path id="Trazado_101302" d="M339.644,116.454c1.028,-2.215 0.051,-4.884 -2.164,-5.913l-10,-4.642c-0.588,-0.273 -1.228,-0.414 -1.876,-0.414c-1.729,-0 -3.309,1.008 -4.037,2.577l-1.756,3.781l18.075,8.391l1.758,-3.78Z" style="fill:#fff;fill-rule:nonzero;"/><path id="Rectángulo_5488" d="M314.213,123.894l-5.892,12.691l18.075,8.392l5.892,-12.691l-18.075,-8.392Z" style="fill:#ffa440;"/><path id="Rectángulo_5489" d="M319.807,111.844l-5.594,12.05l18.075,8.392l5.594,-12.05l-18.075,-8.392Z" style="fill:#ffd150;"/><path id="Trazado_101303" d="M311.467,153.472c0.316,0.146 0.66,0.222 1.009,0.222c1.316,0 2.4,-1.083 2.4,-2.4c-0,-1.316 -1.084,-2.4 -2.4,-2.4c-0.932,0 -1.783,0.543 -2.176,1.387c-0.148,0.317 -0.224,0.663 -0.224,1.013c-0,0.934 0.544,1.786 1.391,2.178Z" style="fill:#2b2b2b;fill-rule:nonzero;"/></g><g id="Grupo_54955"><path id="Trazado_101304" d="M304.307,143.938c-1.751,0.64 -2.922,2.316 -2.922,4.18c-0,0.522 0.092,1.04 0.271,1.53l3.788,10.353c0.839,2.293 3.417,3.49 5.71,2.651l12.542,-4.589l-6.847,-18.714l-12.542,4.589Zm7.339,7.925c0.096,0.263 0.145,0.542 0.145,0.822c0,1.317 -1.083,2.4 -2.4,2.4c-1.316,-0 -2.4,-1.083 -2.4,-2.4c0,-1.004 0.63,-1.907 1.573,-2.253c0.265,-0.097 0.545,-0.147 0.827,-0.147c1.006,-0 1.91,0.633 2.255,1.578Z" style="fill:#fff;fill-rule:nonzero;"/><path id="Trazado_101305" d="M353.23,147.259c2.293,-0.84 3.49,-3.417 2.651,-5.711l-3.788,-10.352c-0.641,-1.751 -2.316,-2.922 -4.181,-2.922c-0.522,-0 -1.04,0.092 -1.53,0.271l-3.915,1.432l6.847,18.715l3.916,-1.433Z" style="fill:#fff;fill-rule:nonzero;"/><path id="Rectángulo_5490" d="M329.99,134.541l-13.14,4.808l6.847,18.715l13.14,-4.808l-6.847,-18.715Z" style="fill:#1239c6;"/><path id="Rectángulo_5491" d="M342.466,129.976l-12.476,4.565l6.847,18.715l12.476,-4.565l-6.847,-18.715Z" style="fill:#1164f4;"/><path id="Trazado_101306" d="M307.133,153.513c0.346,0.942 1.249,1.573 2.253,1.573c1.316,-0 2.4,-1.084 2.4,-2.4c-0,-1.317 -1.084,-2.4 -2.4,-2.4c-0.281,-0 -0.559,0.049 -0.823,0.145c-0.945,0.345 -1.577,1.249 -1.577,2.255c-0,0.282 0.05,0.562 0.147,0.827Z" style="fill:#2b2b2b;fill-rule:nonzero;"/></g></g><g id="Grupo_54959"><g id="Grupo_54957"><path id="Trazado_101307" d="M63.204,203.475c-0.34,-0.1 -0.693,-0.15 -1.048,-0.15c-1.649,-0 -3.111,1.095 -3.574,2.678l-10.963,37.429c-0.574,1.961 0.567,4.047 2.528,4.622l4.716,1.381l13.057,-44.577l-4.716,-1.383Z" style="fill:#1164f4;fill-rule:nonzero;"/><path id="Trazado_101308" d="M87.776,210.673l-4.356,-1.276l-13.056,44.578l4.355,1.275c0.34,0.1 0.693,0.15 1.048,0.15c1.649,0 3.111,-1.095 3.574,-2.678l10.963,-37.428c0.574,-1.961 -0.567,-4.047 -2.528,-4.621Z" style="fill:#1164f4;fill-rule:nonzero;"/><path id="Rectángulo_5492" d="M67.916,204.842l-13.052,44.592l13.042,3.817l13.052,-44.592l-13.042,-3.817Z" style="fill:#d0d4dd;"/><path id="Rectángulo_5493" d="M80.953,208.661l-13.052,44.592l2.464,0.721l13.053,-44.592l-2.465,-0.721Z" style="fill:#4f5359;"/></g><g id="Grupo_54958"><path id="Trazado_101309" d="M72.98,231.15c0.137,-0.466 0.206,-0.95 0.206,-1.436c-0,-2.803 -2.307,-5.11 -5.11,-5.11c-2.803,0 -5.11,2.307 -5.11,5.11c-0,2.262 1.502,4.268 3.673,4.904c0.467,0.137 0.951,0.206 1.437,0.206c2.262,0 4.268,-1.503 4.904,-3.674Z" style="fill:#acb2bc;fill-rule:nonzero;"/><path id="Trazado_101310" d="M73.395,229.735c0.137,-0.466 0.206,-0.95 0.206,-1.436c-0,-2.803 -2.307,-5.11 -5.11,-5.11c-2.803,0 -5.11,2.307 -5.11,5.11c-0,2.262 1.502,4.268 3.673,4.904c2.691,0.788 5.553,-0.778 6.341,-3.468Z" style="fill:#dfe3ea;fill-rule:nonzero;"/><path id="Trazado_101311" d="M70.218,228.321l-1.151,-0.337l0.337,-1.151c0.016,-0.047 0.024,-0.097 0.024,-0.147c-0,-0.255 -0.21,-0.465 -0.465,-0.465c-0.212,0 -0.399,0.145 -0.451,0.351l-0.337,1.151l-1.151,-0.337c-0.047,-0.016 -0.097,-0.024 -0.147,-0.024c-0.255,0 -0.465,0.21 -0.465,0.465c0,0.212 0.145,0.399 0.351,0.451l1.151,0.337l-0.337,1.151c-0.012,0.043 -0.019,0.087 -0.019,0.131c0,0.255 0.21,0.465 0.466,0.465c0.205,0 0.388,-0.136 0.446,-0.334l0.337,-1.151l1.151,0.337c0.046,0.015 0.094,0.022 0.143,0.022c0.255,0 0.465,-0.209 0.465,-0.465c-0,-0.21 -0.143,-0.395 -0.346,-0.449l-0.002,-0.001Z" style="fill:#acb2bc;fill-rule:nonzero;"/></g></g><g id="Grupo_54960"><path id="Trazado_101312" d="M41.903,97.05c-0.4,0 -0.773,-0.202 -0.991,-0.537c-0.642,-0.985 -15.656,-24.333 -11.051,-43.345c3,-12.386 12.356,-15.933 20.61,-19.062c4.866,-1.845 9.463,-3.588 12.667,-6.884c4.525,-4.656 2.885,-12.782 -1.229,-17.64c-1.572,-1.858 -7.294,-7.511 -14.875,-2.262c-4.486,3.106 -6.631,7.133 -5.886,11.051c0.485,2.553 2.182,4.653 4.124,5.107c1.289,0.277 2.621,-0.289 3.315,-1.409c0.223,-0.296 0.573,-0.47 0.944,-0.47c0.648,0 1.182,0.534 1.182,1.183c0,0.257 -0.084,0.508 -0.239,0.713c-1.256,1.869 -3.542,2.779 -5.739,2.286c-2.87,-0.671 -5.244,-3.471 -5.91,-6.969c-0.439,-2.307 -0.649,-8.235 6.863,-13.437c7.326,-5.07 14.115,-1.941 18.025,2.678c4.886,5.771 6.642,15.135 1.12,20.815c-3.569,3.674 -8.63,5.593 -13.524,7.448c-8.084,3.064 -16.442,6.233 -19.149,17.408c-4.364,18.014 10.583,41.265 10.734,41.5c0.125,0.192 0.192,0.417 0.192,0.646c0,0.648 -0.533,1.182 -1.181,1.182l-0.002,-0.002Z" style="fill:#acb2bc;fill-rule:nonzero;"/><path id="Trazado_101313" d="M41.902,95.868l-7.793,-17.961c-2.985,1.238 -5.539,3.329 -7.342,6.01c0.494,5.246 1.632,12.539 4.243,18.777c3.292,-2.775 6.959,-5.073 10.892,-6.826Z" style="fill:#d0d4dd;fill-rule:nonzero;"/><path id="Trazado_101314" d="M26.767,83.912c-4.466,6.823 -2.7,16.313 -0.432,23.079c1.482,-1.514 3.042,-2.949 4.674,-4.3c-2.61,-6.24 -3.749,-13.533 -4.242,-18.779Z" style="fill:#acb2bc;fill-rule:nonzero;"/><path id="Trazado_101315" d="M60.549,91.89c-4.628,-8.517 -13.443,-19.632 -26.292,-14.058c-0.052,0.022 -0.1,0.048 -0.148,0.071l7.792,17.965c5.934,-2.412 12.247,-3.759 18.648,-3.978Z" style="fill:#e6e9ef;fill-rule:nonzero;"/><path id="Trazado_101316" d="M51.37,114.593c-9.77,2.62 -15.718,-2.468 -19.341,-9.68c-1.692,1.4 -3.307,2.891 -4.838,4.466c0.349,0.91 0.694,1.743 1.013,2.479c3.439,7.929 16.693,21.109 27.868,16.262c9.737,-4.224 10.306,-19.346 7.914,-28.248c-0.559,6.112 -3.566,12.294 -12.616,14.721Z" style="fill:#acb2bc;fill-rule:nonzero;"/><path id="Trazado_101317" d="M32.029,104.913c3.623,7.211 9.571,12.3 19.341,9.68c9.05,-2.427 12.057,-8.61 12.615,-14.722c-0.275,-1.051 -0.625,-2.08 -1.048,-3.08c-0.345,-0.8 -0.756,-1.693 -1.226,-2.653c-6.463,0.205 -12.838,1.555 -18.829,3.988c-3.918,1.743 -7.571,4.028 -10.853,6.787Z" style="fill:#d0d4dd;fill-rule:nonzero;"/><path id="Trazado_101318" d="M42.204,96.567l-0.3,-0.7c-3.933,1.751 -7.599,4.047 -10.892,6.821c0.317,0.76 0.657,1.502 1.02,2.225c3.282,-2.759 6.935,-5.044 10.853,-6.787c5.991,-2.433 12.366,-3.783 18.829,-3.988c-0.352,-0.718 -0.74,-1.473 -1.162,-2.249c-6.401,0.219 -12.714,1.566 -18.648,3.978l0.3,0.7Z" style="fill:#acb2bc;fill-rule:nonzero;"/><path id="Trazado_101319" d="M31.009,102.689c-1.632,1.351 -3.192,2.786 -4.674,4.3c0.282,0.84 0.571,1.642 0.856,2.388c1.532,-1.574 3.148,-3.064 4.842,-4.463c-0.365,-0.722 -0.707,-1.464 -1.024,-2.225Z" style="fill:#959ba5;fill-rule:nonzero;"/></g><g id="Grupo_54962"><path id="Rectángulo_5494" d="M322.946,191.167l-54.835,6.321l6.321,54.835l54.835,-6.321l-6.321,-54.835Z" style="fill:#ffd150;"/><g id="Grupo_54961"><path id="Trazado_101320" d="M277.851,227.725l1.924,16.682l2.14,-0.247l-2.152,-18.662c-0.675,0.781 -1.326,1.539 -1.912,2.227Z" style="fill:#1164f4;fill-rule:nonzero;"/><path id="Trazado_101321" d="M277.45,205.438l37.715,-4.348l2.974,25.8c0.813,0.758 1.639,1.546 2.436,2.32l-3.648,-31.644l-42,4.842l2.918,25.313c0.586,-0.688 1.237,-1.446 1.912,-2.226l-2.307,-20.057Z" style="fill:#1239c6;fill-rule:nonzero;"/><path id="Trazado_101322" d="M318.14,226.895l1.49,12.918l2.14,-0.247l-1.193,-10.351c-0.798,-0.774 -1.624,-1.56 -2.437,-2.32Z" style="fill:#1164f4;fill-rule:nonzero;"/><path id="Trazado_101323" d="M311.9,222.138c-1.649,0.393 -8.684,10.487 -8.684,10.487c-0,0 -15.7,-14.52 -16.932,-14.039c-0.664,0.259 -3.782,3.747 -6.521,6.913l2.152,18.662l37.716,-4.348l-1.49,-12.921c-2.85,-2.652 -5.533,-4.922 -6.241,-4.754Z" style="fill:#2ea1ff;fill-rule:nonzero;"/><path id="Trazado_101324" d="M277.45,205.443l2.312,20.056c2.739,-3.166 5.857,-6.653 6.521,-6.913c1.232,-0.481 16.932,14.039 16.932,14.039c0,-0 7.035,-10.094 8.684,-10.487c0.7,-0.168 3.391,2.1 6.24,4.757l-2.974,-25.8l-37.715,4.348Zm25.052,12.764c-0.22,0.025 -0.442,0.038 -0.664,0.038c-3.176,0 -5.789,-2.613 -5.789,-5.789c0,-3.176 2.613,-5.789 5.789,-5.789c2.926,0 5.416,2.219 5.751,5.126c0.363,3.154 -1.932,6.049 -5.086,6.414l-0.001,-0Z" style="fill:#1164f4;fill-rule:nonzero;"/><path id="Trazado_101325" d="M301.177,206.705c-2.907,0.335 -5.126,2.825 -5.126,5.751c0,3.176 2.613,5.789 5.789,5.789c3.176,-0 5.789,-2.613 5.789,-5.789c0,-0.222 -0.013,-0.443 -0.038,-0.663c-0.364,-3.155 -3.259,-5.451 -6.414,-5.088Z" style="fill:#ffd150;fill-rule:nonzero;"/></g></g></g></g></g></g></g></svg>