<?xml version="1.0" encoding="UTF-8" standalone="no"?><!DOCTYPE svg PUBLIC "-//W3C//DTD SVG 1.1//EN" "http://www.w3.org/Graphics/SVG/1.1/DTD/svg11.dtd"><svg width="100%" height="100%" viewBox="0 0 110 110" version="1.1" xmlns="http://www.w3.org/2000/svg" xmlns:xlink="http://www.w3.org/1999/xlink" xml:space="preserve" xmlns:serif="http://www.serif.com/" style="fill-rule:evenodd;clip-rule:evenodd;stroke-linejoin:round;stroke-miterlimit:2;"><rect id="Mesa-de-trabajo1" serif:id="Mesa de trabajo1" x="0" y="0" width="109.4" height="109.4" style="fill:none;"/><g id="Grupo_58421"><path id="Elipse_4186" d="M0.835,45.959c4.824,-29.729 32.877,-49.948 62.606,-45.124c29.729,4.824 49.948,32.877 45.124,62.606c-4.824,29.729 -32.877,49.948 -62.606,45.124c-29.729,-4.824 -49.948,-32.877 -45.124,-62.606Z" style="fill:#ffc935;"/><g id="Storyboard"><path id="Trazado_103064" d="M50.824,24.664l-23.253,0c-1.595,0 -2.907,1.312 -2.907,2.907l0,23.253c0,1.595 1.312,2.907 2.907,2.907l23.253,0c1.595,0 2.907,-1.312 2.907,-2.907l0,-23.253c0,-1.595 -1.312,-2.907 -2.907,-2.907Zm0.969,26.16c0,0.532 -0.437,0.969 -0.969,0.969l-23.253,0c-0.532,0 -0.969,-0.437 -0.969,-0.969l-0,-23.253c-0,-0.532 0.437,-0.969 0.969,-0.969l23.253,-0c0.532,-0 0.969,0.437 0.969,0.969l0,23.253Z" style="fill:#12263f;fill-rule:nonzero;"/><path id="Trazado_103065" d="M50.824,55.669l-23.253,-0c-1.595,-0 -2.907,1.312 -2.907,2.907l0,23.253c0,1.595 1.312,2.907 2.907,2.907l23.253,-0c1.595,-0 2.907,-1.312 2.907,-2.907l0,-23.253c0,-1.595 -1.312,-2.907 -2.907,-2.907Zm0.969,26.16c0,0.532 -0.437,0.969 -0.969,0.969l-23.253,0c-0.532,0 -0.969,-0.437 -0.969,-0.969l-0,-23.253c-0,-0.532 0.437,-0.969 0.969,-0.969l23.253,-0c0.532,-0 0.969,0.437 0.969,0.969l0,23.253Z" style="fill:#12263f;fill-rule:nonzero;"/><path id="Trazado_103066" d="M81.829,24.664l-23.253,0c-1.595,0 -2.907,1.312 -2.907,2.907l-0,23.253c-0,1.595 1.312,2.907 2.907,2.907l23.253,0c1.595,0 2.907,-1.312 2.907,-2.907l-0,-23.253c-0,-1.595 -1.312,-2.907 -2.907,-2.907Zm0.969,26.16c0,0.532 -0.437,0.969 -0.969,0.969l-23.253,0c-0.532,0 -0.969,-0.437 -0.969,-0.969l-0,-23.253c-0,-0.532 0.437,-0.969 0.969,-0.969l23.253,-0c0.532,-0 0.969,0.437 0.969,0.969l0,23.253Z" style="fill:#12263f;fill-rule:nonzero;"/><path id="Trazado_103067" d="M45.581,38.414l-10.658,-7.751c-0.166,-0.121 -0.365,-0.186 -0.57,-0.186c-0.531,0 -0.969,0.438 -0.969,0.969l0,14.534c0,0.532 0.438,0.969 0.969,0.969c0.184,0 0.365,-0.052 0.52,-0.151l10.658,-6.783c0.28,-0.177 0.449,-0.486 0.449,-0.817c0,-0.31 -0.148,-0.602 -0.399,-0.784Zm-10.259,5.801l-0,-10.866l7.968,5.795l-7.968,5.071Z" style="fill:#12263f;fill-rule:nonzero;"/><path id="Trazado_103068" d="M81.829,55.669l-23.253,-0c-1.595,-0 -2.907,1.312 -2.907,2.907l-0,23.253c-0,1.595 1.312,2.907 2.907,2.907l23.253,-0c1.595,-0 2.907,-1.312 2.907,-2.907l-0,-23.253c-0,-1.595 -1.312,-2.907 -2.907,-2.907Zm0.969,26.16c0,0.532 -0.437,0.969 -0.969,0.969l-23.253,0c-0.532,0 -0.969,-0.437 -0.969,-0.969l-0,-23.253c-0,-0.532 0.437,-0.969 0.969,-0.969l23.253,-0c0.532,-0 0.969,0.437 0.969,0.969l0,23.253Z" style="fill:#12263f;fill-rule:nonzero;"/><path id="Trazado_103069" d="M76.586,69.419l-10.658,-7.752c-0.166,-0.12 -0.365,-0.185 -0.57,-0.185c-0.532,0 -0.969,0.438 -0.969,0.969l0,14.534c0,0.532 0.437,0.969 0.969,0.969c0.184,0 0.365,-0.053 0.52,-0.152l10.658,-6.782c0.279,-0.177 0.449,-0.486 0.449,-0.817c0,-0.31 -0.149,-0.602 -0.399,-0.784Zm-10.259,5.8l-0,-10.865l7.968,5.795l-7.968,5.07Z" style="fill:#12263f;fill-rule:nonzero;"/><path id="Trazado_103070" d="M35.322,78.923l-5.813,-0c-0.532,-0 -0.969,0.437 -0.969,0.968c-0,0.532 0.437,0.969 0.969,0.969l5.813,0c0.532,0 0.969,-0.437 0.969,-0.969c-0,-0.531 -0.437,-0.968 -0.969,-0.968Z" style="fill:#12263f;fill-rule:nonzero;"/><path id="Trazado_103071" d="M39.198,78.923l-0.969,-0c-0.532,-0 -0.969,0.437 -0.969,0.968c-0,0.532 0.437,0.969 0.969,0.969l0.969,0c0.531,0 0.968,-0.437 0.968,-0.969c0,-0.531 -0.437,-0.968 -0.968,-0.968Z" style="fill:#12263f;fill-rule:nonzero;"/><path id="Trazado_103072" d="M66.327,47.918l-5.814,-0c-0.531,-0 -0.968,0.437 -0.968,0.969c-0,0.531 0.437,0.968 0.968,0.968l5.814,0c0.531,0 0.969,-0.437 0.969,-0.968c-0,-0.532 -0.438,-0.969 -0.969,-0.969Z" style="fill:#12263f;fill-rule:nonzero;"/><path id="Trazado_103073" d="M70.202,47.918l-0.968,-0c-0.532,-0 -0.969,0.437 -0.969,0.969c-0,0.531 0.437,0.968 0.969,0.968l0.968,0c0.532,0 0.969,-0.437 0.969,-0.968c0,-0.532 -0.437,-0.969 -0.969,-0.969Z" style="fill:#12263f;fill-rule:nonzero;"/><path id="Trazado_103074" d="M80.86,44.042l-20.347,0c-0.531,0 -0.968,0.437 -0.968,0.969c-0,0.532 0.437,0.969 0.968,0.969l20.347,-0c0.532,-0 0.969,-0.437 0.969,-0.969c0,-0.532 -0.437,-0.969 -0.969,-0.969Z" style="fill:#12263f;fill-rule:nonzero;"/><path id="Trazado_103075" d="M80.86,40.166l-20.347,0c-0.531,0 -0.968,0.438 -0.968,0.969c-0,0.532 0.437,0.969 0.968,0.969l20.347,0c0.532,0 0.969,-0.437 0.969,-0.969c0,-0.531 -0.437,-0.969 -0.969,-0.969Z" style="fill:#12263f;fill-rule:nonzero;"/><path id="Trazado_103076" d="M60.513,38.229l8.721,-0c0.531,-0 0.968,-0.438 0.968,-0.969l0,-7.751c0,-0.532 -0.437,-0.969 -0.968,-0.969l-8.721,-0c-0.531,-0 -0.968,0.437 -0.968,0.969l-0,7.751c-0,0.531 0.437,0.969 0.968,0.969Zm0.969,-7.752l6.783,0l-0,5.814l-6.783,-0l0,-5.814Z" style="fill:#12263f;fill-rule:nonzero;"/><path id="Trazado_103077" d="M49.855,75.047l-20.346,-0c-0.532,-0 -0.969,0.437 -0.969,0.969c-0,0.531 0.437,0.969 0.969,0.969l20.346,-0c0.532,-0 0.969,-0.438 0.969,-0.969c0,-0.532 -0.437,-0.969 -0.969,-0.969Z" style="fill:#12263f;fill-rule:nonzero;"/><path id="Trazado_103078" d="M49.855,71.171l-20.346,0c-0.532,0 -0.969,0.438 -0.969,0.969c-0,0.532 0.437,0.969 0.969,0.969l20.346,0c0.532,0 0.969,-0.437 0.969,-0.969c0,-0.531 -0.437,-0.969 -0.969,-0.969Z" style="fill:#12263f;fill-rule:nonzero;"/><path id="Trazado_103079" d="M29.509,69.234l8.72,-0c0.531,-0 0.969,-0.438 0.969,-0.969l-0,-7.752c-0,-0.531 -0.438,-0.968 -0.969,-0.968l-8.72,-0c-0.532,-0 -0.969,0.437 -0.969,0.968l-0,7.752c-0,0.531 0.437,0.969 0.969,0.969Zm0.968,-7.752l6.783,0l-0,5.814l-6.783,-0l0,-5.814Z" style="fill:#12263f;fill-rule:nonzero;"/></g></g></svg>