<svg xmlns="http://www.w3.org/2000/svg" width="284" height="273" viewBox="0 0 284 273">
  <g id="Grupo_58423" data-name="Grupo 58423" transform="translate(-157 -148)">
    <circle id="Elipse_4222" data-name="Elipse 4222" cx="136.5" cy="136.5" r="136.5" transform="translate(157 148)" fill="#ddffa7"/>
    <g id="guion_2_" data-name="guion (2)" transform="translate(175.4 148)">
      <path id="Trazado_103995" data-name="Trazado 103995" d="M333.3,0H226.4l-17.73,122.341L226.4,259.123l53.022,11.893s6.652-.039,6.763-.114c12.882,0,23.485-11.234,23.485-23.446L309.66,37.225Zm0,0" transform="translate(-98.214 0)" fill="#ffc157"/>
      <path id="Trazado_103996" data-name="Trazado 103996" d="M116.632,0A30.448,30.448,0,0,0,86.218,30.412L86.2,240.605l82.555,18.518V0Zm0,0" transform="translate(-40.574 0)" fill="#ffd27b"/>
      <path id="Trazado_103997" data-name="Trazado 103997" d="M166,324.332h15.88v15.88H166Zm0,0" transform="translate(-78.132 -152.654)" fill="#eb8d00"/>
      <path id="Trazado_103998" data-name="Trazado 103998" d="M423.02,0a23.585,23.585,0,0,0-23.559,23.559V37.223H446.58V23.559A23.585,23.585,0,0,0,423.02,0Zm0,0" transform="translate(-188.015)" fill="#eb9d2d"/>
      <path id="Trazado_103999" data-name="Trazado 103999" d="M286.46,116.212v-15.88H236.528l-6.528,9,6.528,6.881Zm0,0" transform="translate(-108.254 -47.223)" fill="#bd6800"/>
      <path id="Trazado_104000" data-name="Trazado 104000" d="M246.939,190.88V175H236.528L230,184l6.528,6.881Zm0,0" transform="translate(-108.254 -82.367)" fill="#bd6800"/>
      <path id="Trazado_104001" data-name="Trazado 104001" d="M286.46,265.544v-15.88H236.528L230,258.487l6.528,7.057Zm0,0" transform="translate(-108.254 -117.51)" fill="#bd6800"/>
      <g id="Grupo_57829" data-name="Grupo 57829" transform="translate(87.868 53.109)">
        <path id="Trazado_104002" data-name="Trazado 104002" d="M166,100.332h40.4v15.88H166Zm0,0" transform="translate(-166 -100.332)" fill="#eb8d00"/>
        <path id="Trazado_104003" data-name="Trazado 104003" d="M166,175h40.4v15.88H166Zm0,0" transform="translate(-166 -135.476)" fill="#eb8d00"/>
        <path id="Trazado_104004" data-name="Trazado 104004" d="M166,249.664h40.4v15.88H166Zm0,0" transform="translate(-166 -170.618)" fill="#eb8d00"/>
      </g>
      <path id="Trazado_104005" data-name="Trazado 104005" d="M296.05,478.9v0a23.586,23.586,0,0,1-23.46-23.557V441.668H236.705L230,458.431l6.7,20.466Zm0,0" transform="translate(-108.254 -207.88)" fill="#ffdc82"/>
      <path id="Trazado_104006" data-name="Trazado 104006" d="M0,455.2a23.7,23.7,0,0,0,23.7,23.7H128.449V441.668H0Zm0,0" transform="translate(0 -207.88)" fill="#ffe899"/>
      <path id="Trazado_104007" data-name="Trazado 104007" d="M399.842,175.548l-.761-14.962-63.968,56.152-49.73,57.546h44.526l29.919-29.919,3.515-10.688,7.712-.54,10.773-10.773a61.876,61.876,0,0,0,18.014-46.817Zm0,0" transform="translate(-134.321 -75.583)" fill="#189edb"/>
      <path id="Trazado_104008" data-name="Trazado 104008" d="M384.119,159.078l14.962.761-113.7,113.7V229.013L315.3,199.094l14.164-.041-2.936-11.188L337.3,177.091a61.878,61.878,0,0,1,46.817-18.014Zm0,0" transform="translate(-134.321 -74.836)" fill="#4bbaed"/>
      <path id="Trazado_104009" data-name="Trazado 104009" d="M353.126,213.527l10.4,10.4L352.3,235.159l-10.4-10.4Zm0,0" transform="translate(-160.922 -100.501)" fill="#87d0ed"/>
      <path id="Trazado_104010" data-name="Trazado 104010" d="M416.766,299.63l-10.4-10.4L417.591,278,428,288.4Zm0,0" transform="translate(-191.264 -130.845)" fill="#4bbaed"/>
      <path id="Trazado_104011" data-name="Trazado 104011" d="M289.255,308.48l11.23,11.23-47.021,47.021-11.23-11.23Zm0,0" transform="translate(-114.013 -145.193)" fill="#cce4ed"/>
    </g>
  </g>
</svg>
