<?xml version="1.0" encoding="UTF-8" standalone="no"?><!DOCTYPE svg PUBLIC "-//W3C//DTD SVG 1.1//EN" "http://www.w3.org/Graphics/SVG/1.1/DTD/svg11.dtd"><svg width="100%" height="100%" viewBox="0 0 801 412" version="1.1" xmlns="http://www.w3.org/2000/svg" xmlns:xlink="http://www.w3.org/1999/xlink" xml:space="preserve" xmlns:serif="http://www.serif.com/" style="fill-rule:evenodd;clip-rule:evenodd;stroke-linejoin:round;stroke-miterlimit:2;"><g id="Grupo_58423"><g id="Grupo_58420"><g id="Grupo_58419"><g id="Grupo_57265"><g id="Grupo_57224"><g id="Grupo_57220"><path id="Trazado_102978" d="M401.702,27.897c-97.466,-0.16 -191.076,38.583 -259.921,107.576l259.921,259.921l0,-367.497Z" style="fill:#ffc935;fill-rule:nonzero;"/><path id="Trazado_102979" d="M408.454,411.698l-276.222,-276.225l4.773,-4.773c70.648,-70.651 164.651,-109.556 264.7,-109.556l6.752,0l-0.003,390.554Zm-257.081,-276.176l243.576,243.572l-0,-344.384c-91.026,1.418 -178.173,37.486 -243.576,100.812Z" style="fill:#fff;fill-rule:nonzero;"/></g><g id="Grupo_57221"><path id="Trazado_102980" d="M661.625,135.473c-68.846,-68.993 -162.457,-107.737 -259.924,-107.576l0,367.5l259.924,-259.924Z" style="fill:#ff4b52;fill-rule:nonzero;"/><path id="Trazado_102981" d="M394.95,411.698l0,-390.553l6.752,-0c100.045,-0 194.051,38.9 264.7,109.556l4.773,4.773l-276.225,276.224Zm13.5,-376.988l0,344.384l243.583,-243.572c-65.405,-63.326 -152.555,-99.395 -243.583,-100.812Z" style="fill:#fff;fill-rule:nonzero;"/></g><g id="Grupo_57222"><path id="Trazado_102982" d="M141.78,135.474c-68.993,68.845 -107.737,162.455 -107.576,259.921l367.5,0l-259.924,-259.921Z" style="fill:#004046;fill-rule:nonzero;"/><path id="Trazado_102983" d="M418.003,402.147l-390.551,0l0,-6.749c0,-100.048 38.9,-194.051 109.553,-264.7l4.776,-4.776l276.222,276.225Zm-376.988,-13.5l344.388,0l-243.579,-243.581c-63.326,65.404 -99.393,152.553 -100.807,243.579l-0.002,0.002Z" style="fill:#fff;fill-rule:nonzero;"/></g><g id="Grupo_57223"><path id="Trazado_102984" d="M769.202,395.395c0.16,-97.466 -38.583,-191.076 -107.576,-259.921l-259.924,259.921l367.5,0Z" style="fill:#ddffa7;fill-rule:nonzero;"/><path id="Trazado_102985" d="M775.954,402.147l-390.553,0l276.225,-276.222l4.776,4.776c70.646,70.646 109.553,164.649 109.553,264.7l-0.001,6.746Zm-357.949,-13.5l344.38,0c-1.414,-91.026 -37.479,-178.174 -100.8,-243.581l-243.58,243.581Z" style="fill:#fff;fill-rule:nonzero;"/></g></g><path id="Trazado_102986" d="M512.485,284.614c-29.365,-29.379 -69.244,-45.902 -110.782,-45.902c-85.927,-0 -156.634,70.707 -156.634,156.634c-0,0.016 -0,0.032 -0,0.048l313.272,-0c0.066,-41.542 -16.449,-81.439 -45.856,-110.78Z" style="fill:#fff;fill-rule:nonzero;"/><g id="Grupo_57227"><circle id="Elipse_4181" cx="64.669" cy="261.817" r="64.669" style="fill:#fff;"/></g><g id="Grupo_57229"><circle id="Elipse_4183" cx="736.104" cy="261.817" r="64.669" style="fill:#ddffa7;"/></g><g id="Grupo_57230"><circle id="Elipse_4185" cx="259.451" cy="64.67" r="64.669" style="fill:#ffc935;"/></g><g id="Grupo_57232"><circle id="Elipse_4187" cx="533.161" cy="64.67" r="64.669" style="fill:#ff4b52;"/></g></g><g id="Grupo_58418"><g id="Grupo_57227-2"><circle id="Elipse_4181-2" cx="68.089" cy="263.335" r="64.669" style="fill:#004046;"/></g></g></g><g id="storyboard_1_"><path id="Trazado_102994" d="M451.597,271.647l-43.871,0l-0,-5.484c-0,-1.003 -0.825,-1.828 -1.828,-1.828l-18.28,-0c-1.002,0.001 -1.827,0.826 -1.827,1.828l-0,5.484l-43.872,0c-1.003,0 -1.828,0.825 -1.828,1.828l-0,76.774c-0,1.003 0.825,1.828 1.828,1.828l31.072,0l-0,5.484c-0,1.003 0.825,1.828 1.828,1.828l4.611,0l-6.309,15.773c-0.086,0.216 -0.131,0.446 -0.131,0.679c0,1.003 0.825,1.828 1.828,1.828c0.001,0 0.002,0 0.003,0l7.312,0c0.747,0.001 1.422,-0.456 1.7,-1.149l6.853,-17.13l12.145,0l6.853,17.13c0.278,0.693 0.953,1.15 1.7,1.149l7.307,0c0.001,0 0.002,0 0.003,0c1.003,0 1.828,-0.825 1.828,-1.828c-0,-0.233 -0.045,-0.463 -0.131,-0.679l-6.309,-15.773l4.609,0c1.003,0 1.828,-0.825 1.828,-1.828l0,-5.484l31.075,0c1.003,0 1.828,-0.825 1.828,-1.828l0,-76.774c0,-1.002 -0.823,-1.826 -1.825,-1.828Zm-62.151,-3.656l14.624,0l0,3.656l-14.624,0l0,-3.656Zm-8.555,106.022l-3.368,0l5.849,-14.624l3.373,0l-5.854,14.624Zm35.1,0l-3.371,0l-5.849,-14.624l3.373,0l5.847,14.624Zm0.873,-18.28l-40.214,0l0,-3.656l40.216,0l-0.002,3.656Zm32.9,-7.312l-106.017,0l0,-73.118l106.022,0l-0.005,73.118Z" style="fill:#12263f;fill-rule:nonzero;"/><path id="Trazado_102995" d="M380.306,280.787l-0,21.936c-0,1.003 0.825,1.828 1.828,1.828l29.247,0c1.003,0 1.828,-0.825 1.828,-1.828l0,-21.936c0,-1.003 -0.825,-1.828 -1.828,-1.828l-29.247,-0c-1.003,-0 -1.828,0.825 -1.828,1.828Zm3.656,1.828l25.592,0l0,18.28l-25.592,0l0,-18.28Z" style="fill:#12263f;fill-rule:nonzero;"/><path id="Trazado_102996" d="M376.65,278.959l-29.247,-0c-1.003,-0 -1.828,0.825 -1.828,1.828l-0,21.936c-0,1.003 0.825,1.828 1.828,1.828l29.247,0c1.002,-0.002 1.825,-0.826 1.825,-1.828l-0,-21.936c0,-1.002 -0.823,-1.826 -1.825,-1.828Zm-1.828,21.936l-25.591,0l-0,-18.28l25.591,0l-0,18.28Z" style="fill:#12263f;fill-rule:nonzero;"/><path id="Trazado_102997" d="M416.866,304.551l29.247,0c1.003,-0 1.828,-0.825 1.828,-1.828l-0,-21.936c-0,-1.003 -0.825,-1.828 -1.828,-1.828l-29.247,-0c-1.003,-0 -1.828,0.825 -1.828,1.828l-0,21.936c-0,1.003 0.825,1.828 1.828,1.828Zm1.828,-21.936l25.592,0l-0,18.28l-25.592,0l-0,-18.28Z" style="fill:#12263f;fill-rule:nonzero;"/><path id="Trazado_102998" d="M411.381,306.378l-29.247,0c-1.003,0 -1.828,0.825 -1.828,1.828c-0,1.003 0.825,1.828 1.828,1.828l29.247,0c1.003,0 1.828,-0.825 1.828,-1.828c-0,-1.003 -0.825,-1.828 -1.828,-1.828Z" style="fill:#12263f;fill-rule:nonzero;"/><path id="Trazado_102999" d="M376.65,306.378l-29.247,0c-1.003,0 -1.828,0.825 -1.828,1.828c-0,1.003 0.825,1.828 1.828,1.828l29.247,0c1.003,0 1.828,-0.825 1.828,-1.828c-0,-1.003 -0.825,-1.828 -1.828,-1.828Z" style="fill:#12263f;fill-rule:nonzero;"/><path id="Trazado_103000" d="M416.866,310.034l29.247,0c1.003,0 1.828,-0.825 1.828,-1.828c0,-1.003 -0.825,-1.828 -1.828,-1.828l-29.247,-0c-1.003,-0 -1.828,0.825 -1.828,1.828c-0,1.003 0.825,1.828 1.828,1.828Z" style="fill:#12263f;fill-rule:nonzero;"/><path id="Trazado_103001" d="M411.381,313.69l-29.247,-0c-1.003,-0 -1.828,0.825 -1.828,1.828l-0,21.936c-0,1.003 0.825,1.828 1.828,1.828l29.247,0c1.003,0 1.828,-0.825 1.828,-1.828l-0,-21.936c-0,-1.003 -0.825,-1.828 -1.828,-1.828Zm-1.828,21.936l-25.591,0l-0,-18.28l25.592,0l-0.001,18.28Z" style="fill:#12263f;fill-rule:nonzero;"/><path id="Trazado_103002" d="M376.65,313.69l-29.247,-0c-1.003,-0 -1.828,0.825 -1.828,1.828l-0,21.936c-0,1.003 0.825,1.828 1.828,1.828l29.247,0c1.003,0 1.828,-0.825 1.828,-1.828l-0,-21.936c-0,-1.003 -0.825,-1.828 -1.828,-1.828Zm-1.828,21.936l-25.591,0l-0,-18.28l25.591,0l-0,18.28Z" style="fill:#12263f;fill-rule:nonzero;"/><path id="Trazado_103003" d="M416.866,339.282l29.247,0c1.003,0 1.828,-0.825 1.828,-1.828l-0,-21.936c-0,-1.003 -0.825,-1.828 -1.828,-1.828l-29.247,-0c-1.003,-0 -1.828,0.825 -1.828,1.828l-0,21.936c-0,1.003 0.825,1.828 1.828,1.828Zm1.828,-21.936l25.592,0l-0,18.28l-25.592,0l-0,-18.28Z" style="fill:#12263f;fill-rule:nonzero;"/><path id="Trazado_103004" d="M411.381,341.11l-29.247,-0c-1.003,-0 -1.828,0.825 -1.828,1.828c-0,1.003 0.825,1.828 1.828,1.828l29.247,0c1.003,-0 1.828,-0.825 1.828,-1.828c-0,-1.003 -0.825,-1.828 -1.828,-1.828Z" style="fill:#12263f;fill-rule:nonzero;"/><path id="Trazado_103005" d="M376.65,341.11l-29.247,-0c-1.003,-0 -1.828,0.825 -1.828,1.828c-0,1.003 0.825,1.828 1.828,1.828l29.247,0c1.003,-0 1.828,-0.825 1.828,-1.828c-0,-1.003 -0.825,-1.828 -1.828,-1.828Z" style="fill:#12263f;fill-rule:nonzero;"/><path id="Trazado_103006" d="M416.866,344.766l29.247,-0c1.003,-0 1.828,-0.825 1.828,-1.828c0,-1.003 -0.825,-1.828 -1.828,-1.828l-29.247,-0c-1.003,-0 -1.828,0.825 -1.828,1.828c-0,1.003 0.825,1.828 1.828,1.828Z" style="fill:#12263f;fill-rule:nonzero;"/></g></g><g id="Grupo_58422"><path id="Trazado_105216" d="M137.904,316.441c0.145,-0.453 0.065,-0.89 -0.215,-1.172c-0.47,-0.386 -1.021,-0.679 -1.635,-0.869c-0.682,-0.241 -1.334,-0.532 -1.952,-0.869c-1.598,-0.905 -2.183,-2.149 -1.755,-3.731c0.192,-0.751 0.633,-1.484 1.25,-2.08c0.681,-0.638 1.486,-1.125 2.328,-1.406c0.997,-0.346 2.004,-0.516 2.967,-0.5c0.949,-0.016 1.836,0.171 2.601,0.547c0.678,0.328 1.188,0.869 1.469,1.558c0.267,0.682 0.285,1.484 0.052,2.301l-3.418,0c0.167,-0.505 0.105,-0.999 -0.167,-1.348c-0.312,-0.336 -0.78,-0.507 -1.311,-0.479c-0.506,-0.027 -1.053,0.115 -1.556,0.406c-0.399,0.234 -0.703,0.62 -0.81,1.03c-0.087,0.406 0.032,0.776 0.318,0.991c0.525,0.41 1.136,0.719 1.813,0.918c0.769,0.256 1.486,0.598 2.14,1.021c1.22,0.678 1.73,2.104 1.31,3.662c-0.264,1.147 -1.086,2.246 -2.193,2.93c-1.342,0.769 -2.8,1.145 -4.147,1.069c-1.08,0.016 -2.089,-0.196 -2.963,-0.62c-0.76,-0.348 -1.333,-0.939 -1.649,-1.7c-0.279,-0.741 -0.291,-1.607 -0.035,-2.489l3.438,0c-0.22,0.62 -0.171,1.234 0.135,1.685c0.44,0.411 1.072,0.604 1.773,0.542c0.468,0.026 0.974,-0.102 1.441,-0.366c0.391,-0.239 0.681,-0.627 0.771,-1.031Zm11.412,-9.414l-0.71,2.627l1.738,0l-0.618,2.285l-1.738,0l-1.307,4.834c-0.109,0.293 -0.112,0.588 -0.009,0.83c0.19,0.188 0.474,0.272 0.787,0.234c0.273,0.004 0.553,-0.016 0.836,-0.059l-0.637,2.354c-0.653,0.192 -1.307,0.289 -1.937,0.288c-0.93,0.076 -1.756,-0.212 -2.294,-0.8c-0.409,-0.667 -0.464,-1.545 -0.154,-2.432l1.419,-5.249l-1.342,0l0.618,-2.285l1.348,0l0.71,-2.627l3.29,0Zm0.213,7.812c0.246,-0.975 0.717,-1.94 1.377,-2.819c0.601,-0.797 1.396,-1.459 2.282,-1.9c0.95,-0.457 1.946,-0.687 2.885,-0.664c1.419,-0.073 2.639,0.464 3.342,1.47c0.658,1.105 0.761,2.54 0.286,4l-0.032,0.117c-0.312,1.436 -1.187,2.846 -2.432,3.921c-1.242,0.993 -2.739,1.524 -4.109,1.456c-1.358,0.062 -2.536,-0.427 -3.258,-1.353c-0.68,-0.986 -0.853,-2.3 -0.483,-3.667l0.142,-0.561Zm3.236,0.205c-0.256,0.745 -0.298,1.49 -0.122,2.148c0.177,0.452 0.624,0.713 1.172,0.684c1.172,0 2.016,-0.902 2.532,-2.705l0.089,-0.332c0.513,-1.895 0.163,-2.842 -1.047,-2.842c-1.1,-0 -1.917,0.817 -2.45,2.451l-0.174,0.596Zm15.398,-2.412l-1.063,-0.078c-0.768,-0.121 -1.67,0.269 -2.256,0.977l-1.808,6.689l-3.291,-0l2.856,-10.566l3.086,-0l-0.26,1.357c0.646,-0.929 1.721,-1.54 2.734,-1.553c0.312,-0.006 0.61,0.034 0.886,0.117l-0.884,3.057Zm4.781,2.979l3.368,-5.957l3.525,-0l-7.64,12.334l-0.308,0.449c-0.877,1.309 -2.414,2.139 -3.796,2.051c-0.458,-0.004 -0.897,-0.07 -1.305,-0.195l0.634,-2.344l0.43,-0c0.359,0.02 0.741,-0.048 1.114,-0.2c0.309,-0.162 0.572,-0.419 0.735,-0.719l0.453,-0.7l-0.786,-10.676l3.516,-0l0.06,5.957Zm16.106,-0.591c-0.289,1.415 -1.045,2.821 -2.151,4c-0.972,0.935 -2.248,1.459 -3.41,1.4c-1.031,0.026 -1.874,-0.453 -2.255,-1.279l-0.425,1.079l-2.949,-0l4.055,-15l3.291,-0l-1.428,5.283c0.778,-0.688 1.755,-1.072 2.655,-1.045c1.204,-0.061 2.204,0.47 2.668,1.416c0.464,1.176 0.461,2.576 -0.007,3.985l-0.044,0.161Zm-3.243,-0.21c0.258,-0.746 0.32,-1.494 0.182,-2.169c-0.148,-0.428 -0.56,-0.678 -1.07,-0.648c-0.622,-0.058 -1.325,0.279 -1.773,0.848l-1.133,4.192c0.147,0.571 0.677,0.903 1.337,0.838c0.69,0.051 1.459,-0.438 1.78,-1.131c0.299,-0.633 0.526,-1.279 0.675,-1.925l0.002,-0.005Zm4.33,0.024c0.245,-0.973 0.716,-1.937 1.374,-2.814c0.601,-0.797 1.396,-1.459 2.282,-1.9c0.95,-0.457 1.946,-0.687 2.885,-0.664c1.419,-0.073 2.639,0.464 3.342,1.47c0.658,1.105 0.761,2.54 0.286,4l-0.032,0.117c-0.312,1.436 -1.187,2.846 -2.432,3.921c-1.241,0.993 -2.738,1.523 -4.108,1.456c-1.358,0.062 -2.536,-0.427 -3.258,-1.353c-0.68,-0.986 -0.853,-2.3 -0.483,-3.667l0.144,-0.566Zm3.235,0.205c-0.255,0.745 -0.298,1.49 -0.121,2.148c0.176,0.452 0.623,0.713 1.172,0.684c1.172,-0 2.015,-0.902 2.531,-2.705l0.09,-0.332c0.512,-1.895 0.163,-2.842 -1.048,-2.842c-1.1,-0 -1.917,0.817 -2.45,2.451l-0.174,0.596Zm12.903,5.181c-0.065,-0.3 -0.084,-0.619 -0.056,-0.947c-0.82,0.767 -1.88,1.194 -2.847,1.147c-0.936,0.025 -1.754,-0.296 -2.296,-0.9c-0.525,-0.558 -0.684,-1.395 -0.431,-2.271c0.219,-1.028 0.968,-2.015 1.973,-2.6c1.292,-0.655 2.66,-0.962 3.928,-0.879l1.016,-0l0.151,-0.559c0.264,-0.975 -0.024,-1.462 -0.864,-1.462c-0.048,-0.007 -0.098,-0.011 -0.149,-0.011c-0.565,-0 -1.155,0.465 -1.308,1.03c-0.013,0.046 -0.022,0.093 -0.028,0.139l-3.291,-0c0.254,-0.994 0.997,-1.931 1.972,-2.487c1.157,-0.669 2.414,-1.005 3.583,-0.956c1.166,-0.064 2.205,0.286 2.927,0.986c0.606,0.673 0.778,1.669 0.469,2.705l-1.265,4.678c-0.239,0.768 -0.291,1.531 -0.153,2.227l-0.043,0.16l-3.288,-0Zm-1.478,-2.148c0.355,0.014 0.735,-0.078 1.093,-0.264c0.281,-0.147 0.537,-0.354 0.743,-0.6l0.456,-1.688l-0.957,-0c-1.146,-0 -1.858,0.514 -2.136,1.543c-0.085,0.275 -0.048,0.541 0.103,0.728c0.161,0.19 0.411,0.291 0.698,0.281Zm14.586,-5.44l-1.063,-0.078c-0.768,-0.121 -1.67,0.269 -2.256,0.977l-1.808,6.689l-3.291,-0l2.856,-10.566l3.086,-0l-0.26,1.357c0.646,-0.93 1.724,-1.542 2.737,-1.553c0.312,-0.006 0.61,0.034 0.886,0.117l-0.887,3.057Zm-0.016,2.227c0.3,-1.401 1.057,-2.79 2.153,-3.955c0.963,-0.955 2.246,-1.497 3.418,-1.445c0.924,-0.01 1.691,0.4 2.082,1.113l1.447,-5.352l3.3,-0l-4.055,15l-2.958,-0l0.14,-1.133c-0.814,0.841 -1.915,1.34 -2.938,1.333c-1.184,0.039 -2.157,-0.504 -2.596,-1.45c-0.48,-1.212 -0.478,-2.657 0.007,-4.111Zm3.236,0.205c-0.507,1.875 -0.214,2.813 0.88,2.813c0.647,0.041 1.366,-0.323 1.811,-0.918l1.088,-4.024c-0.103,-0.604 -0.62,-0.979 -1.29,-0.937c-1.015,-0 -1.787,0.82 -2.315,2.461l-0.174,0.605Zm-88.409,32.156c-0.146,-0.3 -0.251,-0.619 -0.312,-0.947c-0.613,0.767 -1.559,1.195 -2.54,1.147c-0.928,0.025 -1.834,-0.296 -2.539,-0.9c-0.678,-0.559 -1.064,-1.4 -1.045,-2.279c-0.059,-1.028 0.423,-2.015 1.27,-2.6c1.115,-0.654 2.401,-0.959 3.691,-0.876l1.016,-0l-0,-0.559c-0,-0.975 -0.42,-1.462 -1.26,-1.462c-0.05,-0.007 -0.101,-0.011 -0.151,-0.011c-0.565,-0 -1.03,0.465 -1.03,1.03c-0,0.046 0.003,0.093 0.009,0.139l-3.291,-0c-0.013,-0.996 0.48,-1.933 1.307,-2.488c0.976,-0.669 2.143,-1.005 3.325,-0.956c1.148,-0.064 2.281,0.286 3.193,0.986c0.788,0.673 1.23,1.669 1.2,2.705l-0,4.678c-0.031,0.768 0.123,1.531 0.449,2.227l-0,0.166l-3.292,-0Zm-2.061,-2.148c0.359,0.014 0.714,-0.078 1.021,-0.264c0.242,-0.147 0.442,-0.354 0.581,-0.6l0,-1.688l-0.957,-0c-1.146,-0 -1.719,0.514 -1.719,1.543c-0.011,0.275 0.099,0.541 0.3,0.728c0.212,0.19 0.489,0.291 0.774,0.281Zm9.746,-8.418l0.107,1.24c0.707,-0.946 1.838,-1.485 3.018,-1.436c0.93,-0.071 1.841,0.294 2.466,0.986c0.609,0.866 0.908,1.912 0.849,2.969l-0,6.807l-3.3,-0l-0,-6.67c0.034,-0.418 -0.08,-0.835 -0.322,-1.177c-0.318,-0.288 -0.746,-0.425 -1.172,-0.376c-0.582,-0.033 -1.137,0.261 -1.436,0.762l0,7.461l-3.295,-0l-0,-10.566l3.085,-0Zm11.729,10.566l-3.3,-0l-0,-10.566l3.3,-0l-0,10.566Zm-3.5,-13.3c-0.012,-0.443 0.176,-0.87 0.511,-1.16c0.773,-0.601 1.864,-0.601 2.637,-0c0.324,0.298 0.508,0.719 0.508,1.159c0,0.441 -0.184,0.862 -0.508,1.16c-0.773,0.601 -1.864,0.601 -2.637,-0c-0.333,-0.291 -0.52,-0.717 -0.507,-1.159l-0.004,-0Zm8.633,2.734l0.107,1.24c0.712,-0.94 1.839,-1.476 3.018,-1.436c1.148,-0.109 2.243,0.535 2.705,1.592c0.679,-1.042 1.863,-1.648 3.105,-1.592c2.142,-0 3.242,1.296 3.3,3.887l-0,6.875l-3.3,-0l-0,-6.67c0.033,-0.413 -0.063,-0.825 -0.273,-1.182c-0.254,-0.278 -0.627,-0.416 -1,-0.371c-0.613,-0.022 -1.184,0.319 -1.455,0.869l0.01,0.137l-0,7.217l-3.3,-0l-0,-6.65c0.033,-0.417 -0.059,-0.835 -0.264,-1.2c-0.255,-0.28 -0.631,-0.419 -1.006,-0.371c-0.608,-0.014 -1.172,0.326 -1.445,0.869l-0,7.352l-3.284,-0l-0,-10.566l3.082,-0Zm20.072,10.566c-0.146,-0.3 -0.251,-0.619 -0.312,-0.947c-0.613,0.767 -1.558,1.194 -2.539,1.147c-0.928,0.025 -1.834,-0.296 -2.539,-0.9c-0.676,-0.558 -1.061,-1.395 -1.045,-2.271c-0.059,-1.028 0.423,-2.015 1.27,-2.6c1.115,-0.655 2.401,-0.962 3.691,-0.879l1.016,-0l-0,-0.559c-0,-0.975 -0.42,-1.462 -1.26,-1.462c-0.051,-0.008 -0.103,-0.012 -0.155,-0.012c-0.565,0 -1.03,0.465 -1.03,1.03c0,0.045 0.003,0.09 0.009,0.134l-3.287,-0c-0.014,-0.994 0.476,-1.931 1.3,-2.487c0.976,-0.669 2.143,-1.005 3.325,-0.956c1.148,-0.064 2.281,0.286 3.193,0.986c0.788,0.673 1.23,1.669 1.2,2.705l-0,4.678c-0.031,0.768 0.123,1.531 0.449,2.227l-0,0.166l-3.286,-0Zm-2.061,-2.148c0.359,0.014 0.714,-0.078 1.021,-0.264c0.242,-0.147 0.442,-0.354 0.581,-0.6l-0,-1.688l-0.957,-0c-1.146,-0 -1.719,0.514 -1.719,1.543c-0.011,0.275 0.099,0.541 0.3,0.728c0.212,0.191 0.49,0.291 0.775,0.281l-0.001,-0Zm6.309,-3.213c-0.078,-1.401 0.303,-2.79 1.084,-3.955c0.705,-0.955 1.841,-1.497 3.027,-1.445c0.922,-0.01 1.799,0.4 2.383,1.113l-0,-5.352l3.3,-0l-0,15l-2.958,-0l-0.166,-1.133c-0.587,0.841 -1.552,1.34 -2.578,1.333c-1.172,0.04 -2.292,-0.501 -2.988,-1.445c-0.809,-1.214 -1.197,-2.66 -1.104,-4.116Zm3.291,0.205c-0,1.875 0.547,2.813 1.641,2.813c0.658,0.041 1.279,-0.323 1.563,-0.918l-0,-4.024c-0.266,-0.604 -0.885,-0.979 -1.543,-0.937c-1.015,-0 -1.565,0.82 -1.65,2.461l-0.011,0.605Zm7.959,-0.225c-0.018,-0.974 0.193,-1.939 0.615,-2.817c0.385,-0.797 1.001,-1.459 1.768,-1.9c0.827,-0.457 1.76,-0.687 2.705,-0.664c1.4,-0.073 2.764,0.464 3.74,1.47c0.957,1.105 1.447,2.54 1.367,4l-0,0.117c0.076,1.436 -0.417,2.846 -1.372,3.921c-0.973,0.992 -2.327,1.522 -3.715,1.454c-1.341,0.062 -2.651,-0.427 -3.623,-1.353c-0.948,-0.986 -1.478,-2.303 -1.477,-3.671l-0.008,-0.557Zm3.291,0.205c-0.054,0.745 0.105,1.49 0.459,2.148c0.299,0.452 0.816,0.713 1.357,0.684c1.172,-0 1.772,-0.902 1.8,-2.705l-0,-0.332c-0,-1.895 -0.605,-2.842 -1.816,-2.842c-1.1,-0 -1.696,0.817 -1.787,2.451l-0.013,0.596Z" style="fill:#fff;fill-rule:nonzero;"/><path id="Trazado_105215" d="M270.86,187.441c0.147,-0.453 0.07,-0.89 -0.208,-1.172c-0.467,-0.386 -1.017,-0.679 -1.63,-0.869c-0.68,-0.241 -1.33,-0.532 -1.946,-0.869c-1.593,-0.905 -2.171,-2.148 -1.733,-3.73c0.196,-0.751 0.641,-1.484 1.263,-2.081c0.685,-0.64 1.495,-1.129 2.34,-1.411c0.999,-0.346 2.007,-0.516 2.97,-0.5c0.949,-0.016 1.835,0.171 2.598,0.547c0.675,0.328 1.182,0.869 1.459,1.558c0.262,0.683 0.274,1.487 0.035,2.306l-3.418,0c0.169,-0.505 0.111,-0.999 -0.16,-1.348c-0.309,-0.336 -0.776,-0.507 -1.307,-0.479c-0.507,-0.028 -1.056,0.114 -1.562,0.405c-0.401,0.234 -0.707,0.62 -0.817,1.03c-0.089,0.406 0.027,0.776 0.312,0.991c0.523,0.41 1.132,0.719 1.807,0.918c0.771,0.255 1.488,0.597 2.14,1.021c1.216,0.678 1.717,2.104 1.288,3.662c-0.272,1.148 -1.103,2.247 -2.216,2.93c-1.346,0.769 -2.804,1.145 -4.151,1.07c-1.079,0.016 -2.088,-0.196 -2.958,-0.62c-0.758,-0.348 -1.328,-0.939 -1.639,-1.7c-0.274,-0.739 -0.281,-1.605 -0.022,-2.485l3.438,0c-0.223,0.62 -0.178,1.234 0.126,1.685c0.437,0.411 1.067,0.604 1.769,0.542c0.468,0.026 0.975,-0.102 1.444,-0.366c0.394,-0.24 0.686,-0.63 0.778,-1.035Zm11.469,-9.414l-0.726,2.627l1.738,0l-0.631,2.285l-1.738,0l-1.337,4.834c-0.111,0.293 -0.116,0.588 -0.014,0.83c0.189,0.188 0.472,0.272 0.785,0.234c0.274,0.004 0.554,-0.016 0.837,-0.059l-0.651,2.354c-0.653,0.192 -1.305,0.289 -1.935,0.288c-0.93,0.076 -1.754,-0.212 -2.289,-0.8c-0.404,-0.667 -0.454,-1.545 -0.138,-2.432l1.451,-5.249l-1.348,-0l0.631,-2.285l1.348,-0l0.726,-2.627l3.291,-0Zm0.165,7.813c0.251,-0.975 0.729,-1.941 1.395,-2.82c0.605,-0.797 1.405,-1.459 2.293,-1.9c0.954,-0.457 1.951,-0.687 2.889,-0.664c1.42,-0.073 2.636,0.464 3.334,1.47c0.651,1.105 0.744,2.54 0.261,4l-0.032,0.117c-0.321,1.436 -1.204,2.846 -2.457,3.922c-1.248,0.993 -2.748,1.523 -4.118,1.455c-1.358,0.062 -2.532,-0.427 -3.249,-1.353c-0.674,-0.986 -0.839,-2.3 -0.461,-3.667l0.145,-0.56Zm3.234,0.205c-0.26,0.745 -0.307,1.49 -0.135,2.148c0.174,0.452 0.619,0.713 1.168,0.684c1.172,-0 2.021,-0.902 2.548,-2.705l0.092,-0.332c0.523,-1.895 0.18,-2.842 -1.031,-2.842c-1.1,-0 -1.921,0.817 -2.464,2.451l-0.178,0.596Zm15.413,-2.412l-1.063,-0.078c-0.767,-0.121 -1.672,0.269 -2.262,0.977l-1.848,6.688l-3.291,0l2.92,-10.566l3.086,0l-0.268,1.357c0.651,-0.929 1.731,-1.54 2.743,-1.553c0.312,-0.006 0.61,0.034 0.886,0.117l-0.903,3.058Zm4.764,2.978l3.404,-5.957l3.525,0l-7.716,12.334l-0.31,0.449c-0.885,1.308 -2.426,2.138 -3.808,2.051c-0.458,-0.004 -0.896,-0.07 -1.303,-0.195l0.648,-2.344l0.43,0c0.358,0.02 0.741,-0.048 1.115,-0.2c0.31,-0.162 0.575,-0.419 0.74,-0.719l0.457,-0.7l-0.722,-10.673l3.515,-0l0.025,5.954Zm16.11,-0.591c-0.3,1.415 -1.068,2.822 -2.183,4c-0.975,0.932 -2.251,1.456 -3.411,1.4c-1.03,0.026 -1.871,-0.453 -2.246,-1.279l-0.433,1.079l-2.949,-0l4.146,-15l3.291,-0l-1.46,5.283c0.782,-0.688 1.761,-1.072 2.661,-1.045c1.202,-0.059 2.196,0.472 2.653,1.416c0.459,1.175 0.451,2.575 -0.025,3.985l-0.044,0.161Zm-3.242,-0.21c0.262,-0.746 0.329,-1.494 0.195,-2.169c-0.145,-0.428 -0.556,-0.678 -1.066,-0.648c-0.622,-0.058 -1.327,0.279 -1.778,0.848l-1.159,4.192c0.143,0.571 0.672,0.903 1.332,0.838c0.687,0.05 1.458,-0.436 1.784,-1.126c0.304,-0.635 0.536,-1.283 0.69,-1.93l0.002,-0.005Zm4.329,0.024c0.252,-0.973 0.729,-1.937 1.393,-2.814c0.606,-0.797 1.407,-1.46 2.297,-1.9c0.954,-0.457 1.951,-0.687 2.889,-0.664c1.42,-0.073 2.636,0.464 3.334,1.47c0.651,1.105 0.744,2.54 0.261,4l-0.032,0.117c-0.322,1.436 -1.204,2.846 -2.456,3.921c-1.249,0.994 -2.751,1.525 -4.123,1.456c-1.357,0.06 -2.53,-0.431 -3.245,-1.357c-0.674,-0.986 -0.839,-2.3 -0.461,-3.667l0.143,-0.562Zm3.235,0.205c-0.26,0.745 -0.307,1.49 -0.135,2.148c0.174,0.452 0.619,0.713 1.168,0.684c1.172,-0 2.021,-0.902 2.548,-2.705l0.091,-0.332c0.524,-1.895 0.181,-2.842 -1.03,-2.842c-1.1,-0 -1.922,0.817 -2.465,2.451l-0.177,0.596Zm12.874,5.181c-0.063,-0.3 -0.079,-0.619 -0.049,-0.947c-0.825,0.768 -1.891,1.195 -2.859,1.147c-0.935,0.025 -1.752,-0.296 -2.29,-0.9c-0.522,-0.558 -0.676,-1.395 -0.417,-2.271c0.225,-1.028 0.98,-2.015 1.988,-2.6c1.296,-0.655 2.667,-0.962 3.934,-0.879l1.016,-0l0.155,-0.559c0.269,-0.975 -0.016,-1.462 -0.856,-1.462c-0.048,-0.007 -0.098,-0.011 -0.148,-0.011c-0.565,-0 -1.159,0.465 -1.315,1.03c-0.013,0.046 -0.023,0.093 -0.029,0.139l-3.291,-0c0.261,-0.994 1.009,-1.931 1.987,-2.487c1.161,-0.669 2.421,-1.005 3.59,-0.956c1.165,-0.064 2.202,0.286 2.92,0.986c0.602,0.673 0.769,1.669 0.452,2.705l-1.293,4.678c-0.24,0.766 -0.295,1.528 -0.16,2.221l-0.045,0.166l-3.29,-0Zm-1.468,-2.148c0.355,0.014 0.736,-0.078 1.094,-0.264c0.283,-0.147 0.54,-0.354 0.747,-0.6l0.467,-1.688l-0.957,-0c-1.146,-0 -1.861,0.514 -2.146,1.543c-0.087,0.275 -0.051,0.541 0.099,0.728c0.159,0.19 0.409,0.291 0.696,0.281Zm14.62,-5.44l-1.062,-0.078c-0.768,-0.121 -1.672,0.269 -2.262,0.977l-1.849,6.689l-3.289,-0l2.92,-10.566l3.086,-0l-0.268,1.357c0.651,-0.929 1.731,-1.54 2.743,-1.553c0.312,-0.006 0.61,0.034 0.886,0.117l-0.905,3.057Zm-0.03,2.227c0.31,-1.401 1.074,-2.79 2.178,-3.955c0.968,-0.955 2.255,-1.497 3.426,-1.445c0.925,-0.01 1.689,0.4 2.075,1.113l1.48,-5.352l3.3,-0l-4.146,15l-2.958,-0l0.147,-1.133c-0.82,0.841 -1.924,1.341 -2.948,1.333c-1.184,0.039 -2.153,-0.504 -2.587,-1.45c-0.472,-1.213 -0.46,-2.657 0.033,-4.111Zm3.235,0.205c-0.519,1.875 -0.231,2.813 0.863,2.813c0.647,0.041 1.368,-0.323 1.817,-0.918l1.112,-4.024c-0.099,-0.605 -0.615,-0.981 -1.286,-0.938c-1.016,-0 -1.793,0.82 -2.331,2.461l-0.175,0.606Zm-92.036,26.795c-0.077,-1.401 0.304,-2.79 1.087,-3.955c0.705,-0.955 1.841,-1.497 3.027,-1.445c0.922,-0.01 1.799,0.4 2.383,1.113l-0,-5.352l3.3,-0l-0,15l-2.959,-0l-0.166,-1.133c-0.588,0.843 -1.557,1.343 -2.585,1.333c-1.172,0.04 -2.292,-0.501 -2.988,-1.445c-0.807,-1.214 -1.193,-2.661 -1.099,-4.116Zm3.291,0.205c-0,1.875 0.547,2.813 1.641,2.813c0.658,0.041 1.279,-0.323 1.563,-0.918l-0,-4.024c-0.266,-0.604 -0.885,-0.979 -1.543,-0.937c-1.015,-0 -1.565,0.82 -1.65,2.461l-0.011,0.605Zm11.846,5.156l-3.3,-0l-0,-10.566l3.3,-0l-0,10.566Zm-3.5,-13.3c-0.012,-0.443 0.174,-0.868 0.508,-1.159c0.367,-0.311 0.838,-0.473 1.318,-0.452c0.482,-0.023 0.956,0.139 1.324,0.451c0.334,0.291 0.52,0.716 0.508,1.159c0.013,0.443 -0.174,0.869 -0.508,1.16c-0.367,0.311 -0.838,0.473 -1.318,0.452c-0.48,0.021 -0.951,-0.141 -1.318,-0.452c-0.335,-0.29 -0.522,-0.716 -0.51,-1.159l-0.004,-0Zm5.137,7.939c-0.019,-0.97 0.161,-1.934 0.527,-2.832c0.309,-0.767 0.835,-1.428 1.514,-1.9c0.679,-0.452 1.48,-0.686 2.295,-0.669c0.985,-0.05 1.938,0.363 2.577,1.114l0.117,-0.918l2.988,-0l-0,10.166c0.021,0.854 -0.204,1.697 -0.649,2.427c-0.453,0.704 -1.109,1.256 -1.88,1.582c-0.901,0.384 -1.873,0.572 -2.852,0.552c-0.772,0.001 -1.536,-0.148 -2.251,-0.439c-0.642,-0.235 -1.215,-0.628 -1.665,-1.143l1.377,-1.934c0.596,0.715 1.491,1.116 2.422,1.084c0.085,0.011 0.171,0.017 0.257,0.017c1.075,-0 1.96,-0.885 1.96,-1.96c-0,-0.102 -0.008,-0.203 -0.024,-0.304l-0,-0.332c-0.603,0.686 -1.48,1.071 -2.393,1.05c-1.217,0.034 -2.38,-0.516 -3.125,-1.479c-0.843,-1.142 -1.265,-2.542 -1.191,-3.96l-0.004,-0.122Zm3.3,0.205c-0.037,0.718 0.132,1.431 0.488,2.056c0.284,0.481 0.808,0.772 1.367,0.757c0.606,0.049 1.195,-0.222 1.553,-0.713l-0,-4.444c-0.345,-0.496 -0.93,-0.772 -1.533,-0.723c-0.568,-0.01 -1.097,0.292 -1.377,0.786c-0.372,0.7 -0.543,1.49 -0.494,2.281l-0.004,-0Zm12.065,5.156l-3.3,-0l-0,-10.566l3.3,-0l-0,10.566Zm-3.5,-13.3c-0.012,-0.443 0.174,-0.868 0.508,-1.159c0.367,-0.311 0.838,-0.473 1.318,-0.452c0.482,-0.022 0.954,0.139 1.322,0.451c0.334,0.291 0.52,0.716 0.508,1.159c0.013,0.443 -0.174,0.869 -0.508,1.16c-0.367,0.311 -0.838,0.473 -1.318,0.452c-0.48,0.021 -0.951,-0.141 -1.318,-0.452c-0.334,-0.291 -0.521,-0.716 -0.509,-1.159l-0.003,-0Zm8.633,2.734l0.107,1.24c0.712,-0.94 1.839,-1.476 3.018,-1.436c1.149,-0.111 2.246,0.534 2.708,1.592c0.68,-1.042 1.863,-1.649 3.106,-1.592c2.142,-0 3.242,1.296 3.3,3.887l-0,6.875l-3.3,-0l-0,-6.67c0.032,-0.413 -0.063,-0.826 -0.274,-1.182c-0.254,-0.278 -0.627,-0.416 -1,-0.371c-0.613,-0.022 -1.184,0.319 -1.455,0.869l0.01,0.137l-0,7.217l-3.3,-0l-0,-6.65c0.033,-0.417 -0.059,-0.835 -0.264,-1.2c-0.255,-0.28 -0.631,-0.419 -1.006,-0.371c-0.608,-0.014 -1.172,0.326 -1.445,0.869l-0,7.352l-3.29,-0l-0,-10.566l3.085,-0Zm20.072,10.566c-0.146,-0.3 -0.251,-0.619 -0.312,-0.947c-0.613,0.767 -1.559,1.195 -2.54,1.147c-0.928,0.025 -1.834,-0.296 -2.539,-0.9c-0.676,-0.558 -1.061,-1.395 -1.045,-2.271c-0.059,-1.028 0.423,-2.015 1.27,-2.6c1.115,-0.655 2.401,-0.962 3.691,-0.879l1.018,-0l-0,-0.559c-0,-0.975 -0.42,-1.462 -1.26,-1.462c-0.05,-0.007 -0.101,-0.011 -0.151,-0.011c-0.565,-0 -1.03,0.465 -1.03,1.03c-0,0.046 0.003,0.093 0.009,0.139l-3.293,-0c-0.014,-0.994 0.476,-1.931 1.3,-2.487c0.975,-0.671 2.142,-1.009 3.325,-0.962c1.148,-0.064 2.281,0.286 3.193,0.986c0.788,0.673 1.23,1.669 1.2,2.705l-0,4.678c-0.031,0.768 0.123,1.531 0.449,2.227l-0,0.166l-3.285,-0Zm-2.057,-2.148c0.359,0.014 0.714,-0.078 1.021,-0.264c0.242,-0.147 0.442,-0.354 0.581,-0.6l-0,-1.688l-0.961,-0c-1.146,-0 -1.719,0.514 -1.719,1.543c-0.011,0.275 0.099,0.541 0.3,0.728c0.213,0.191 0.492,0.292 0.778,0.281Zm10.553,-11.045l-0,2.627l1.738,-0l-0,2.285l-1.738,-0l-0,4.834c-0.03,0.293 0.046,0.588 0.215,0.83c0.241,0.188 0.547,0.272 0.85,0.234c0.275,0.004 0.549,-0.016 0.82,-0.059l-0,2.354c-0.6,0.19 -1.226,0.285 -1.855,0.283c-0.909,0.076 -1.812,-0.212 -2.51,-0.8c-0.589,-0.667 -0.882,-1.545 -0.811,-2.432l-0,-5.244l-1.348,-0l-0,-2.285l1.348,-0l-0,-2.627l3.291,-0Zm6.504,13.193l-3.3,-0l-0,-10.566l3.3,-0l-0,10.566Zm-3.5,-13.3c-0.012,-0.443 0.174,-0.868 0.508,-1.159c0.773,-0.601 1.864,-0.601 2.637,-0c0.324,0.298 0.508,0.719 0.508,1.159c0,0.441 -0.184,0.862 -0.508,1.16c-0.773,0.601 -1.864,0.601 -2.637,-0c-0.333,-0.292 -0.518,-0.718 -0.504,-1.16l-0.004,-0Zm9.99,10.957c0.394,0.025 0.781,-0.111 1.074,-0.376c0.266,-0.282 0.4,-0.664 0.371,-1.05l3.086,-0c0.031,1.088 -0.426,2.135 -1.245,2.852c-0.888,0.764 -2.034,1.163 -3.204,1.117c-1.362,0.068 -2.689,-0.462 -3.629,-1.45c-0.937,-1.114 -1.413,-2.546 -1.328,-4l-0,-0.137c-0.02,-0.975 0.182,-1.942 0.591,-2.827c0.364,-0.785 0.957,-1.442 1.7,-1.885c0.803,-0.455 1.715,-0.683 2.637,-0.659c1.198,-0.063 2.373,0.348 3.271,1.143c0.828,0.812 1.27,1.942 1.211,3.1l-3.082,-0c0.031,-0.455 -0.112,-0.906 -0.4,-1.26c-0.276,-0.297 -0.669,-0.457 -1.074,-0.439c-0.853,-0 -1.351,0.544 -1.494,1.631c-0.052,0.473 -0.075,0.95 -0.068,1.426c-0.06,0.756 0.071,1.515 0.381,2.207c0.26,0.407 0.724,0.641 1.206,0.606l-0.004,0.001Zm11.455,-0.625c-0.006,-0.29 -0.176,-0.552 -0.439,-0.674c-0.531,-0.248 -1.093,-0.425 -1.67,-0.527c-0.708,-0.142 -1.391,-0.384 -2.031,-0.718c-0.488,-0.255 -0.907,-0.626 -1.221,-1.079c-0.283,-0.432 -0.429,-0.939 -0.42,-1.455c-0.013,-0.946 0.435,-1.843 1.2,-2.4c0.91,-0.663 2.02,-0.995 3.145,-0.942c1.193,-0.059 2.373,0.274 3.359,0.947c0.812,0.565 1.29,1.501 1.27,2.49l-3.295,-0c-0,-0.847 -0.446,-1.27 -1.338,-1.27c-0.315,-0.01 -0.623,0.092 -0.869,0.288c-0.224,0.17 -0.355,0.437 -0.352,0.718c0.003,0.298 0.168,0.572 0.43,0.713c0.427,0.23 0.892,0.382 1.372,0.449c0.561,0.1 1.114,0.24 1.655,0.42c1.383,0.293 2.382,1.525 2.383,2.939c0.008,0.953 -0.477,1.844 -1.281,2.356c-0.986,0.643 -2.149,0.96 -3.325,0.908c-0.833,0.015 -1.66,-0.152 -2.422,-0.488c-0.662,-0.287 -1.235,-0.745 -1.66,-1.328c-0.382,-0.511 -0.593,-1.13 -0.6,-1.768l3.076,-0c-0.022,0.414 0.161,0.814 0.488,1.069c0.354,0.237 0.774,0.355 1.2,0.337c0.358,0.027 0.715,-0.07 1.011,-0.273c0.219,-0.17 0.345,-0.435 0.338,-0.713l-0.004,0.001Z" style="fill:#12263f;fill-rule:nonzero;"/><path id="Trazado_105214" d="M448.169,187.441c0.109,-0.453 -0.006,-0.89 -0.308,-1.172c-0.501,-0.386 -1.076,-0.679 -1.704,-0.869c-0.702,-0.241 -1.377,-0.532 -2.022,-0.869c-1.67,-0.905 -2.354,-2.148 -2.053,-3.73c0.133,-0.751 0.515,-1.484 1.085,-2.081c0.63,-0.64 1.398,-1.129 2.219,-1.411c0.97,-0.346 1.963,-0.516 2.927,-0.5c0.948,-0.016 1.85,0.171 2.645,0.547c0.704,0.328 1.257,0.869 1.593,1.558c0.321,0.683 0.402,1.487 0.232,2.306l-3.418,0c0.127,-0.505 0.026,-0.999 -0.275,-1.348c-0.338,-0.336 -0.82,-0.507 -1.348,-0.479c-0.509,-0.028 -1.047,0.114 -1.527,0.405c-0.381,0.234 -0.654,0.62 -0.729,1.03c-0.054,0.406 0.094,0.776 0.397,0.991c0.558,0.41 1.194,0.719 1.886,0.918c0.792,0.255 1.539,0.597 2.228,1.021c1.273,0.678 1.897,2.104 1.601,3.662c-0.173,1.148 -0.91,2.247 -1.964,2.93c-1.28,0.769 -2.706,1.145 -4.059,1.07c-1.078,0.016 -2.105,-0.196 -3.012,-0.62c-0.788,-0.348 -1.408,-0.939 -1.785,-1.7c-0.337,-0.739 -0.418,-1.605 -0.234,-2.485l3.438,0c-0.171,0.62 -0.073,1.234 0.27,1.685c0.472,0.411 1.119,0.604 1.815,0.542c0.471,0.026 0.966,-0.102 1.413,-0.366c0.373,-0.24 0.632,-0.63 0.689,-1.035Zm10.662,-9.414l-0.501,2.627l1.738,0l-0.435,2.285l-1.738,0l-0.922,4.834c-0.086,0.293 -0.066,0.588 0.057,0.83c0.205,0.188 0.495,0.272 0.805,0.234c0.274,0.004 0.552,-0.016 0.832,-0.059l-0.449,2.354c-0.636,0.192 -1.281,0.289 -1.91,0.288c-0.924,0.076 -1.772,-0.212 -2.358,-0.8c-0.461,-0.667 -0.587,-1.545 -0.347,-2.432l1.001,-5.249l-1.348,-0l0.435,-2.285l1.348,-0l0.501,-2.627l3.291,-0Zm0.835,7.813c0.168,-0.975 0.563,-1.941 1.153,-2.82c0.537,-0.797 1.28,-1.459 2.131,-1.9c0.913,-0.457 1.891,-0.687 2.831,-0.664c1.414,-0.073 2.676,0.464 3.46,1.47c0.746,1.105 0.963,2.54 0.604,4l-0.022,0.117c-0.198,1.436 -0.96,2.846 -2.12,3.922c-1.163,0.993 -2.617,1.523 -3.993,1.455c-1.353,0.062 -2.569,-0.427 -3.365,-1.353c-0.759,-0.986 -1.037,-2.3 -0.776,-3.667l0.097,-0.56Zm3.252,0.205c-0.197,0.745 -0.179,1.49 0.049,2.148c0.212,0.452 0.68,0.713 1.227,0.684c1.172,-0 1.944,-0.902 2.315,-2.705l0.064,-0.332c0.361,-1.895 -0.064,-2.842 -1.275,-2.842c-1.1,-0 -1.851,0.817 -2.254,2.451l-0.126,0.596Zm15.205,-2.412l-1.069,-0.078c-0.778,-0.121 -1.649,0.269 -2.178,0.977l-1.275,6.688l-3.291,0l2.014,-10.566l3.086,0l-0.151,1.357c0.571,-0.929 1.598,-1.54 2.61,-1.553c0.311,-0.006 0.613,0.034 0.895,0.117l-0.641,3.058Zm5.02,2.978l2.893,-5.957l3.525,0l-6.658,12.334l-0.272,0.449c-0.772,1.308 -2.242,2.138 -3.632,2.051c-0.458,-0.004 -0.902,-0.07 -1.32,-0.195l0.447,-2.344l0.43,0c0.361,0.02 0.738,-0.048 1.098,-0.2c0.297,-0.162 0.54,-0.419 0.678,-0.719l0.398,-0.7l-1.637,-10.673l3.515,-0l0.535,5.954Zm16.059,-0.591c-0.178,1.415 -0.825,2.822 -1.839,4c-0.896,0.932 -2.127,1.456 -3.291,1.4c-1.028,0.026 -1.91,-0.453 -2.356,-1.279l-0.341,1.079l-2.949,-0l2.86,-15l3.291,-0l-1.007,5.283c0.723,-0.688 1.669,-1.072 2.572,-1.045c1.196,-0.059 2.235,0.472 2.774,1.416c0.56,1.175 0.671,2.575 0.317,3.985l-0.031,0.161Zm-3.26,-0.21c0.199,-0.746 0.201,-1.494 0.009,-2.169c-0.182,-0.428 -0.614,-0.678 -1.122,-0.648c-0.626,-0.058 -1.303,0.279 -1.704,0.848l-0.799,4.192c0.191,0.571 0.748,0.903 1.403,0.838c0.692,0.05 1.42,-0.436 1.687,-1.126c0.25,-0.635 0.426,-1.283 0.524,-1.93l0.002,-0.005Zm4.332,0.024c0.168,-0.973 0.562,-1.937 1.151,-2.814c0.538,-0.797 1.282,-1.46 2.135,-1.9c0.913,-0.457 1.891,-0.687 2.831,-0.664c1.414,-0.073 2.676,0.464 3.46,1.47c0.746,1.105 0.963,2.54 0.604,4l-0.022,0.117c-0.198,1.436 -0.96,2.846 -2.12,3.921c-1.163,0.994 -2.62,1.525 -3.997,1.456c-1.352,0.06 -2.567,-0.431 -3.361,-1.357c-0.759,-0.986 -1.037,-2.3 -0.776,-3.667l0.095,-0.562Zm3.252,0.205c-0.196,0.745 -0.179,1.49 0.049,2.148c0.213,0.452 0.68,0.713 1.227,0.684c1.172,-0 1.944,-0.902 2.315,-2.705l0.064,-0.332c0.361,-1.895 -0.064,-2.842 -1.274,-2.842c-1.1,-0 -1.852,0.817 -2.255,2.451l-0.126,0.596Zm13.318,5.181c-0.088,-0.3 -0.132,-0.619 -0.13,-0.947c-0.759,0.768 -1.788,1.195 -2.76,1.147c-0.933,0.025 -1.777,-0.296 -2.368,-0.9c-0.569,-0.558 -0.795,-1.395 -0.612,-2.271c0.137,-1.028 0.808,-2.015 1.766,-2.6c1.24,-0.655 2.584,-0.962 3.859,-0.879l1.016,-0l0.106,-0.559c0.186,-0.975 -0.141,-1.462 -0.981,-1.462c-0.049,-0.007 -0.099,-0.011 -0.149,-0.011c-0.565,-0 -1.119,0.465 -1.227,1.03c-0.009,0.046 -0.014,0.093 -0.017,0.139l-3.291,-0c0.176,-0.994 0.844,-1.931 1.774,-2.487c1.104,-0.669 2.335,-1.005 3.508,-0.956c1.16,-0.064 2.227,0.286 3.005,0.986c0.659,0.673 0.911,1.669 0.684,2.705l-0.892,4.678c-0.175,0.766 -0.164,1.528 0.031,2.221l-0.032,0.166l-3.29,-0Zm-1.652,-2.148c0.357,0.014 0.729,-0.078 1.072,-0.264c0.27,-0.147 0.509,-0.354 0.695,-0.6l0.322,-1.688l-0.957,-0c-1.146,-0 -1.817,0.514 -2.013,1.543c-0.064,0.275 -0.005,0.541 0.161,0.728c0.176,0.19 0.434,0.291 0.72,0.281Zm14.154,-5.44l-1.07,-0.078c-0.777,-0.121 -1.648,0.269 -2.178,0.977l-1.275,6.689l-3.289,-0l2.014,-10.566l3.086,-0l-0.151,1.357c0.571,-0.929 1.598,-1.54 2.61,-1.553c0.311,-0.006 0.613,0.034 0.895,0.117l-0.642,3.057Zm0.161,2.227c0.189,-1.401 0.834,-2.79 1.838,-3.955c0.887,-0.955 2.127,-1.497 3.303,-1.445c0.923,-0.01 1.723,0.4 2.17,1.113l1.021,-5.352l3.3,-0l-2.86,15l-2.958,-0l0.05,-1.133c-0.747,0.841 -1.809,1.341 -2.833,1.333c-1.181,0.039 -2.197,-0.504 -2.712,-1.45c-0.576,-1.213 -0.688,-2.657 -0.319,-4.111Zm3.252,0.205c-0.358,1.875 0.011,2.813 1.105,2.813c0.65,0.041 1.34,-0.323 1.738,-0.918l0.767,-4.024c-0.151,-0.605 -0.699,-0.981 -1.367,-0.938c-1.016,-0 -1.722,0.82 -2.12,2.461l-0.123,0.606Zm-105.698,26.795c-0.078,-1.401 0.303,-2.79 1.084,-3.955c0.705,-0.955 1.841,-1.497 3.027,-1.445c0.922,-0.01 1.799,0.4 2.383,1.113l0,-5.352l3.3,-0l0,15l-2.959,-0l-0.166,-1.133c-0.586,0.84 -1.55,1.339 -2.574,1.333c-1.172,0.04 -2.292,-0.501 -2.988,-1.445c-0.809,-1.214 -1.197,-2.66 -1.104,-4.116l-0.003,-0Zm3.291,0.205c0,1.875 0.547,2.813 1.641,2.813c0.658,0.041 1.279,-0.323 1.563,-0.918l0,-4.024c-0.266,-0.604 -0.885,-0.979 -1.543,-0.937c-1.015,-0 -1.565,0.82 -1.65,2.461l-0.011,0.605Zm13.489,5.356c-1.453,0.063 -2.871,-0.46 -3.936,-1.45c-1.01,-0.989 -1.555,-2.361 -1.5,-3.774l0,-0.276c-0.02,-0.987 0.185,-1.965 0.6,-2.861c0.377,-0.802 0.989,-1.471 1.753,-1.919c0.833,-0.469 1.778,-0.704 2.734,-0.679c1.316,-0.067 2.598,0.437 3.516,1.382c0.912,1.069 1.374,2.451 1.289,3.853l0,1.279l-6.543,-0c0.087,0.542 0.36,1.037 0.771,1.4c0.435,0.351 0.984,0.532 1.543,0.508c0.941,0.045 1.849,-0.362 2.441,-1.094l1.5,1.777c-0.45,0.598 -1.052,1.065 -1.743,1.353c-0.764,0.337 -1.59,0.508 -2.425,0.501Zm-0.371,-8.418c-0.963,-0 -1.536,0.638 -1.719,1.914l3.32,-0l0,-0.254c0.041,-0.446 -0.104,-0.89 -0.4,-1.226c-0.321,-0.307 -0.757,-0.467 -1.201,-0.439l0,0.005Zm14.238,-2.344l0.107,1.24c0.712,-0.94 1.839,-1.476 3.018,-1.436c1.147,-0.11 2.243,0.532 2.706,1.588c0.679,-1.042 1.863,-1.648 3.105,-1.592c2.142,-0 3.242,1.296 3.3,3.887l0,6.875l-3.3,-0l0,-6.67c0.033,-0.413 -0.063,-0.825 -0.273,-1.182c-0.254,-0.278 -0.627,-0.416 -1,-0.371c-0.613,-0.022 -1.184,0.319 -1.455,0.869l0.01,0.137l0,7.217l-3.3,-0l0,-6.65c0.033,-0.417 -0.059,-0.835 -0.264,-1.2c-0.255,-0.28 -0.631,-0.419 -1.006,-0.371c-0.608,-0.014 -1.172,0.326 -1.445,0.869l0,7.352l-3.292,-0l0,-10.566l3.089,0.004Zm17.589,10.562l-3.3,-0l0,-10.566l3.3,-0l0,10.566Zm-3.5,-13.3c-0.012,-0.443 0.174,-0.868 0.508,-1.159c0.367,-0.311 0.838,-0.473 1.318,-0.452c0.48,-0.021 0.951,0.141 1.318,0.452c0.334,0.291 0.52,0.716 0.508,1.159c0.012,0.443 -0.174,0.868 -0.508,1.159c-0.367,0.311 -0.838,0.473 -1.318,0.452c-0.48,0.021 -0.951,-0.141 -1.318,-0.452c-0.333,-0.291 -0.518,-0.717 -0.505,-1.159l-0.003,-0Zm8.545,2.734l0.107,1.24c0.707,-0.946 1.838,-1.485 3.018,-1.436c0.93,-0.071 1.841,0.294 2.466,0.986c0.608,0.866 0.906,1.913 0.845,2.969l0,6.807l-3.3,-0l0,-6.67c0.034,-0.418 -0.08,-0.835 -0.322,-1.177c-0.318,-0.288 -0.746,-0.425 -1.172,-0.376c-0.582,-0.033 -1.137,0.261 -1.436,0.762l0,7.461l-3.289,-0l0,-10.566l3.083,-0Zm11.732,10.566l-3.301,-0l0,-10.566l3.3,-0l0.001,10.566Zm-3.496,-13.3c-0.013,-0.443 0.174,-0.869 0.508,-1.16c0.367,-0.311 0.838,-0.473 1.318,-0.452c0.479,-0.02 0.949,0.141 1.315,0.452c0.324,0.298 0.508,0.719 0.508,1.159c0,0.441 -0.184,0.862 -0.508,1.16c-0.367,0.311 -0.838,0.473 -1.318,0.452c-0.48,0.021 -0.951,-0.141 -1.318,-0.452c-0.333,-0.291 -0.518,-0.717 -0.505,-1.159Zm11.474,13.3c-0.146,-0.3 -0.251,-0.619 -0.312,-0.947c-0.613,0.767 -1.558,1.194 -2.539,1.147c-0.928,0.025 -1.834,-0.296 -2.539,-0.9c-0.677,-0.56 -1.062,-1.4 -1.043,-2.279c-0.059,-1.028 0.423,-2.015 1.27,-2.6c1.115,-0.655 2.401,-0.962 3.691,-0.879l1.016,-0l0,-0.559c0,-0.975 -0.42,-1.462 -1.26,-1.462c-0.05,-0.007 -0.101,-0.011 -0.151,-0.011c-0.565,-0 -1.03,0.465 -1.03,1.03c-0,0.046 0.003,0.093 0.009,0.139l-3.293,-0c-0.014,-0.994 0.476,-1.931 1.3,-2.487c0.976,-0.669 2.143,-1.005 3.325,-0.956c1.148,-0.064 2.281,0.286 3.193,0.986c0.788,0.673 1.23,1.669 1.2,2.705l0,4.678c-0.031,0.768 0.123,1.531 0.449,2.227l0,0.168l-3.286,-0Zm-2.06,-2.148c0.359,0.014 0.714,-0.078 1.021,-0.264c0.242,-0.147 0.442,-0.354 0.581,-0.6l0,-1.688l-0.957,-0c-1.145,-0 -1.718,0.515 -1.718,1.546c-0.011,0.275 0.099,0.541 0.3,0.728c0.212,0.189 0.489,0.289 0.773,0.278Zm10.556,-11.045l0,2.627l1.738,-0l0,2.285l-1.738,-0l0,4.834c-0.03,0.293 0.046,0.588 0.215,0.83c0.241,0.188 0.547,0.272 0.85,0.234c0.275,0.004 0.549,-0.016 0.82,-0.059l0,2.354c-0.6,0.19 -1.226,0.285 -1.855,0.283c-0.909,0.076 -1.812,-0.212 -2.51,-0.8c-0.589,-0.667 -0.882,-1.545 -0.811,-2.432l0,-5.244l-1.347,-0l0,-2.285l1.348,-0l0,-2.627l3.29,-0Zm9.326,12.051c-0.666,0.879 -1.72,1.38 -2.822,1.342c-0.984,0.069 -1.95,-0.303 -2.633,-1.015c-0.646,-0.825 -0.964,-1.86 -0.894,-2.905l0,-6.846l3.294,-0l0,6.866c-0.01,0.061 -0.014,0.122 -0.014,0.183c-0,0.649 0.534,1.183 1.183,1.183c0.05,0 0.099,-0.003 0.149,-0.009c0.646,0.055 1.271,-0.259 1.611,-0.811l0,-7.412l3.311,-0l0,10.566l-3.087,-0l-0.098,-1.142Zm11.377,-6.445l-1.084,-0.078c-0.801,-0.121 -1.598,0.269 -1.992,0.977l0,6.688l-3.291,-0l0,-10.566l3.086,-0l0.107,1.357c0.394,-0.929 1.305,-1.54 2.314,-1.553c0.31,-0.006 0.619,0.034 0.918,0.117l-0.058,3.058Zm6.846,7.587c-0.146,-0.3 -0.251,-0.619 -0.312,-0.947c-0.613,0.767 -1.558,1.194 -2.539,1.147c-0.928,0.025 -1.834,-0.296 -2.539,-0.9c-0.676,-0.558 -1.061,-1.395 -1.045,-2.271c-0.059,-1.028 0.423,-2.015 1.27,-2.6c1.115,-0.655 2.401,-0.962 3.691,-0.879l1.016,-0l0,-0.559c0,-0.975 -0.42,-1.462 -1.26,-1.462c-0.05,-0.007 -0.101,-0.011 -0.151,-0.011c-0.565,-0 -1.03,0.465 -1.03,1.03c-0,0.046 0.003,0.093 0.009,0.139l-3.288,-0c-0.014,-0.994 0.476,-1.931 1.3,-2.487c0.976,-0.669 2.143,-1.005 3.325,-0.956c1.148,-0.064 2.281,0.286 3.193,0.986c0.788,0.673 1.23,1.669 1.2,2.705l0,4.678c-0.031,0.768 0.123,1.531 0.449,2.227l0,0.16l-3.289,-0Zm-2.061,-2.148c0.359,0.014 0.714,-0.078 1.021,-0.264c0.242,-0.147 0.442,-0.354 0.581,-0.6l0,-1.688l-0.957,-0c-1.146,-0 -1.719,0.514 -1.719,1.543c-0.011,0.275 0.099,0.541 0.3,0.728c0.212,0.191 0.49,0.291 0.775,0.281l-0.001,-0Zm12.256,-0.82c-0.006,-0.29 -0.176,-0.552 -0.439,-0.674c-0.531,-0.248 -1.093,-0.425 -1.67,-0.527c-0.708,-0.142 -1.391,-0.384 -2.031,-0.718c-0.488,-0.255 -0.907,-0.626 -1.221,-1.079c-0.283,-0.432 -0.429,-0.939 -0.42,-1.455c-0.013,-0.946 0.435,-1.843 1.2,-2.4c0.91,-0.663 2.02,-0.995 3.145,-0.942c1.193,-0.059 2.373,0.274 3.359,0.947c0.812,0.565 1.29,1.501 1.27,2.49l-3.3,-0c0,-0.847 -0.446,-1.27 -1.338,-1.27c-0.315,-0.01 -0.623,0.092 -0.869,0.288c-0.224,0.17 -0.355,0.437 -0.352,0.718c0.003,0.298 0.168,0.572 0.43,0.713c0.427,0.23 0.892,0.382 1.372,0.449c0.561,0.1 1.114,0.24 1.655,0.42c1.383,0.293 2.382,1.525 2.383,2.939c0.006,0.952 -0.48,1.844 -1.284,2.354c-0.986,0.643 -2.149,0.96 -3.325,0.908c-0.833,0.015 -1.66,-0.152 -2.422,-0.488c-0.662,-0.287 -1.235,-0.745 -1.66,-1.328c-0.382,-0.511 -0.593,-1.13 -0.6,-1.768l3.076,-0c-0.022,0.414 0.161,0.814 0.488,1.069c0.354,0.237 0.774,0.355 1.2,0.337c0.358,0.027 0.715,-0.07 1.011,-0.273c0.221,-0.169 0.348,-0.433 0.343,-0.711l-0.001,0.001Z" style="fill:#12263f;fill-rule:nonzero;"/><path id="Trazado_105213" d="M593.703,316.441c0.138,-0.453 0.052,-0.89 -0.231,-1.172c-0.475,-0.386 -1.031,-0.679 -1.647,-0.869c-0.685,-0.241 -1.341,-0.532 -1.963,-0.869c-1.611,-0.905 -2.212,-2.148 -1.806,-3.73c0.182,-0.751 0.613,-1.484 1.223,-2.081c0.672,-0.64 1.472,-1.129 2.312,-1.411c0.992,-0.346 1.997,-0.516 2.961,-0.5c0.948,-0.016 1.838,0.171 2.608,0.547c0.682,0.328 1.199,0.869 1.49,1.558c0.275,0.683 0.303,1.487 0.079,2.306l-3.418,0c0.16,-0.505 0.092,-0.999 -0.185,-1.348c-0.316,-0.336 -0.787,-0.507 -1.317,-0.479c-0.508,-0.028 -1.054,0.114 -1.554,0.405c-0.397,0.234 -0.695,0.62 -0.797,1.03c-0.081,0.406 0.042,0.776 0.331,0.991c0.531,0.41 1.147,0.719 1.826,0.918c0.775,0.255 1.498,0.597 2.159,1.021c1.229,0.678 1.759,2.104 1.359,3.662c-0.249,1.148 -1.059,2.247 -2.158,2.93c-1.331,0.769 -2.782,1.145 -4.13,1.07c-1.08,0.016 -2.092,-0.196 -2.971,-0.62c-0.764,-0.348 -1.346,-0.939 -1.672,-1.7c-0.288,-0.739 -0.312,-1.605 -0.07,-2.485l3.438,0c-0.212,0.62 -0.154,1.234 0.158,1.685c0.446,0.411 1.08,0.604 1.78,0.542c0.469,0.026 0.973,-0.102 1.437,-0.366c0.389,-0.24 0.674,-0.63 0.758,-1.035Zm11.286,-9.414l-0.675,2.627l1.738,0l-0.587,2.285l-1.738,0l-1.242,4.834c-0.105,0.293 -0.105,0.588 0.001,0.83c0.193,0.188 0.478,0.272 0.79,0.234c0.274,0.004 0.553,-0.016 0.836,-0.059l-0.605,2.354c-0.649,0.192 -1.3,0.289 -1.929,0.288c-0.929,0.076 -1.758,-0.212 -2.305,-0.8c-0.417,-0.667 -0.484,-1.545 -0.186,-2.432l1.349,-5.249l-1.348,0l0.587,-2.285l1.348,0l0.675,-2.627l3.291,0Zm0.316,7.813c0.233,-0.975 0.692,-1.941 1.341,-2.82c0.589,-0.797 1.376,-1.459 2.256,-1.9c0.944,-0.457 1.937,-0.687 2.876,-0.664c1.418,-0.073 2.645,0.464 3.362,1.47c0.673,1.105 0.794,2.54 0.339,4l-0.03,0.117c-0.293,1.436 -1.148,2.846 -2.379,3.922c-1.229,0.993 -2.719,1.523 -4.09,1.455c-1.357,0.062 -2.541,-0.427 -3.276,-1.353c-0.693,-0.986 -0.884,-2.3 -0.533,-3.667l0.134,-0.56Zm3.239,0.205c-0.246,0.745 -0.278,1.49 -0.093,2.148c0.182,0.452 0.633,0.713 1.181,0.684c1.172,0 2.004,-0.902 2.495,-2.705l0.085,-0.332c0.487,-1.895 0.125,-2.842 -1.085,-2.842c-1.1,0 -1.906,0.817 -2.417,2.451l-0.166,0.596Zm15.365,-2.412l-1.064,-0.078c-0.769,-0.121 -1.666,0.269 -2.243,0.977l-1.718,6.688l-3.291,0l2.715,-10.566l3.086,0l-0.242,1.357c0.633,-0.929 1.701,-1.54 2.713,-1.553c0.312,-0.006 0.611,0.034 0.888,0.117l-0.844,3.058Zm4.822,2.978l3.289,-5.957l3.525,0l-7.476,12.334l-0.301,0.449c-0.86,1.308 -2.385,2.138 -3.768,2.051c-0.458,-0.004 -0.898,-0.07 -1.307,-0.195l0.602,-2.344l0.43,0c0.359,0.02 0.74,-0.048 1.111,-0.2c0.307,-0.162 0.567,-0.419 0.726,-0.719l0.444,-0.7l-0.93,-10.673l3.515,0l0.14,5.954Zm16.099,-0.591c-0.272,1.415 -1.012,2.822 -2.105,4c-0.957,0.932 -2.222,1.456 -3.383,1.4c-1.03,0.026 -1.88,-0.453 -2.272,-1.279l-0.412,1.079l-2.949,0l3.854,-15l3.291,0l-1.357,5.283c0.769,-0.688 1.741,-1.072 2.641,-1.045c1.2,-0.059 2.205,0.472 2.68,1.416c0.483,1.175 0.501,2.575 0.053,3.985l-0.041,0.161Zm-3.246,-0.21c0.248,-0.746 0.3,-1.494 0.152,-2.169c-0.153,-0.428 -0.568,-0.678 -1.078,-0.648c-0.623,-0.058 -1.322,0.279 -1.761,0.848l-1.077,4.192c0.154,0.571 0.689,0.903 1.348,0.838c0.688,0.05 1.449,-0.436 1.762,-1.126c0.292,-0.635 0.511,-1.283 0.652,-1.93l0.002,-0.005Zm4.33,0.024c0.232,-0.973 0.691,-1.937 1.338,-2.814c0.591,-0.797 1.378,-1.46 2.26,-1.9c0.944,-0.457 1.937,-0.687 2.876,-0.664c1.418,-0.073 2.645,0.464 3.362,1.47c0.673,1.105 0.794,2.54 0.339,4l-0.03,0.117c-0.293,1.436 -1.148,2.846 -2.379,3.921c-1.23,0.994 -2.722,1.525 -4.094,1.456c-1.356,0.06 -2.539,-0.431 -3.272,-1.357c-0.693,-0.986 -0.884,-2.3 -0.533,-3.667l0.133,-0.562Zm3.238,0.205c-0.245,0.745 -0.278,1.49 -0.093,2.148c0.183,0.452 0.633,0.713 1.182,0.684c1.172,-0 2.003,-0.902 2.495,-2.705l0.085,-0.332c0.487,-1.895 0.125,-2.842 -1.086,-2.842c-1.1,-0 -1.906,0.817 -2.417,2.451l-0.166,0.596Zm12.975,5.181c-0.068,-0.3 -0.091,-0.619 -0.067,-0.947c-0.81,0.768 -1.867,1.195 -2.836,1.147c-0.935,0.025 -1.758,-0.296 -2.308,-0.9c-0.533,-0.558 -0.703,-1.395 -0.462,-2.271c0.206,-1.028 0.941,-2.015 1.938,-2.6c1.283,-0.655 2.648,-0.962 3.917,-0.879l1.016,-0l0.144,-0.559c0.25,-0.975 -0.045,-1.462 -0.885,-1.462c-0.048,-0.007 -0.097,-0.011 -0.148,-0.011c-0.565,-0 -1.15,0.465 -1.295,1.03c-0.012,0.046 -0.02,0.093 -0.026,0.139l-3.291,-0c0.241,-0.994 0.972,-1.931 1.939,-2.487c1.148,-0.669 2.401,-1.005 3.571,-0.956c1.164,-0.064 2.207,0.286 2.939,0.986c0.615,0.673 0.801,1.669 0.505,2.705l-1.202,4.678c-0.225,0.766 -0.265,1.528 -0.116,2.221l-0.043,0.166l-3.29,-0Zm-1.509,-2.148c0.355,0.014 0.734,-0.078 1.089,-0.264c0.279,-0.147 0.533,-0.354 0.735,-0.6l0.434,-1.688l-0.957,0c-1.146,0 -1.852,0.514 -2.116,1.543c-0.081,0.275 -0.04,0.541 0.113,0.728c0.163,0.19 0.415,0.291 0.702,0.281Zm14.514,-5.44l-1.064,-0.078c-0.77,-0.121 -1.667,0.269 -2.243,0.977l-1.719,6.689l-3.289,-0l2.715,-10.566l3.086,-0l-0.242,1.357c0.633,-0.929 1.701,-1.54 2.713,-1.553c0.312,-0.006 0.611,0.034 0.888,0.117l-0.845,3.057Zm0.013,2.227c0.282,-1.401 1.02,-2.79 2.101,-3.955c0.95,-0.955 2.226,-1.497 3.398,-1.445c0.924,-0.01 1.697,0.4 2.097,1.113l1.375,-5.352l3.3,-0l-3.854,15l-2.958,-0l0.125,-1.133c-0.803,0.841 -1.897,1.341 -2.921,1.333c-1.183,0.039 -2.163,-0.504 -2.616,-1.45c-0.496,-1.213 -0.512,-2.657 -0.047,-4.111Zm3.239,0.205c-0.482,1.875 -0.176,2.813 0.918,2.813c0.648,0.041 1.362,-0.323 1.799,-0.918l1.034,-4.024c-0.111,-0.605 -0.634,-0.981 -1.305,-0.938c-1.016,-0 -1.776,0.82 -2.283,2.461l-0.163,0.606Zm-88.323,18.963l0,2.627l1.738,-0l0,2.285l-1.738,-0l0,4.834c-0.03,0.293 0.046,0.588 0.215,0.83c0.241,0.188 0.547,0.272 0.85,0.234c0.275,0.004 0.549,-0.016 0.82,-0.059l0,2.354c-0.6,0.19 -1.226,0.285 -1.855,0.283c-0.909,0.076 -1.812,-0.212 -2.51,-0.8c-0.589,-0.667 -0.882,-1.545 -0.811,-2.432l0,-5.244l-1.351,-0l0,-2.285l1.348,-0l0,-2.627l3.294,-0Zm9.424,5.605l-1.084,-0.078c-0.801,-0.121 -1.598,0.269 -1.992,0.977l0,6.689l-3.29,-0l0,-10.566l3.086,-0l0.107,1.357c0.394,-0.929 1.305,-1.54 2.314,-1.553c0.31,-0.006 0.619,0.034 0.918,0.117l-0.059,3.057Zm6.847,7.588c-0.146,-0.3 -0.251,-0.619 -0.312,-0.947c-0.613,0.767 -1.559,1.195 -2.54,1.147c-0.928,0.025 -1.834,-0.296 -2.539,-0.9c-0.676,-0.558 -1.061,-1.395 -1.045,-2.271c-0.059,-1.028 0.423,-2.015 1.27,-2.6c1.115,-0.655 2.401,-0.962 3.691,-0.879l1.016,-0l0,-0.559c0,-0.975 -0.42,-1.462 -1.26,-1.462c-0.05,-0.007 -0.101,-0.011 -0.151,-0.011c-0.565,-0 -1.03,0.465 -1.03,1.03c-0,0.046 0.003,0.093 0.009,0.139l-3.291,-0c-0.014,-0.994 0.476,-1.931 1.3,-2.487c0.976,-0.669 2.143,-1.005 3.325,-0.956c1.148,-0.064 2.281,0.286 3.193,0.986c0.788,0.673 1.23,1.669 1.2,2.705l0,4.678c-0.031,0.768 0.123,1.531 0.449,2.227l0,0.16l-3.285,-0Zm-2.061,-2.148c0.359,0.014 0.714,-0.078 1.021,-0.264c0.242,-0.147 0.442,-0.354 0.581,-0.6l0,-1.688l-0.954,-0c-1.146,-0 -1.719,0.514 -1.719,1.543c-0.011,0.275 0.099,0.541 0.3,0.728c0.211,0.19 0.487,0.29 0.771,0.281Zm6.309,-3.213c-0.078,-1.401 0.303,-2.79 1.084,-3.955c0.705,-0.955 1.841,-1.497 3.027,-1.445c0.922,-0.01 1.799,0.4 2.383,1.113l0,-5.352l3.3,-0l0,15l-2.955,-0l-0.166,-1.133c-0.587,0.842 -1.554,1.341 -2.581,1.333c-1.172,0.04 -2.292,-0.501 -2.988,-1.445c-0.809,-1.214 -1.197,-2.66 -1.104,-4.116Zm3.291,0.205c0,1.875 0.547,2.813 1.641,2.813c0.658,0.041 1.279,-0.323 1.563,-0.918l0,-4.024c-0.266,-0.604 -0.885,-0.979 -1.543,-0.937c-1.015,-0 -1.565,0.82 -1.65,2.461l-0.011,0.605Zm11.848,5.156l-3.3,-0l0,-10.566l3.3,-0l0,10.566Zm-3.5,-13.3c-0.012,-0.443 0.174,-0.868 0.508,-1.159c0.367,-0.311 0.838,-0.473 1.318,-0.452c0.48,-0.021 0.951,0.141 1.318,0.452c0.335,0.29 0.522,0.716 0.51,1.159c0.012,0.443 -0.174,0.868 -0.508,1.159c-0.367,0.311 -0.838,0.473 -1.318,0.452c-0.48,0.021 -0.951,-0.141 -1.318,-0.452c-0.335,-0.29 -0.522,-0.716 -0.51,-1.159Zm9.99,10.957c0.395,0.025 0.783,-0.111 1.076,-0.377c0.266,-0.282 0.4,-0.664 0.371,-1.05l3.086,-0c0.031,1.088 -0.426,2.135 -1.245,2.852c-0.889,0.765 -2.036,1.165 -3.208,1.118c-1.364,0.069 -2.692,-0.461 -3.633,-1.45c-0.937,-1.114 -1.413,-2.546 -1.328,-4l0,-0.137c-0.02,-0.976 0.182,-1.944 0.591,-2.831c0.365,-0.784 0.957,-1.44 1.7,-1.882c0.803,-0.455 1.715,-0.683 2.637,-0.659c1.198,-0.063 2.373,0.348 3.271,1.143c0.828,0.812 1.27,1.942 1.211,3.1l-3.082,-0c0.031,-0.455 -0.112,-0.906 -0.4,-1.26c-0.276,-0.297 -0.669,-0.457 -1.074,-0.439c-0.853,-0 -1.351,0.544 -1.494,1.631c-0.052,0.471 -0.075,0.944 -0.069,1.418c-0.06,0.756 0.071,1.515 0.381,2.207c0.259,0.412 0.725,0.65 1.211,0.615l-0.002,0.001Zm9.396,2.343l-3.3,-0l0,-10.566l3.3,-0l0,10.566Zm-3.496,-13.3c-0.012,-0.443 0.175,-0.869 0.51,-1.16c0.367,-0.311 0.838,-0.473 1.318,-0.452c0.48,-0.021 0.951,0.141 1.318,0.452c0.324,0.298 0.508,0.719 0.508,1.159c0,0.441 -0.184,0.862 -0.508,1.16c-0.367,0.311 -0.838,0.473 -1.318,0.452c-0.48,0.021 -0.951,-0.141 -1.318,-0.452c-0.335,-0.29 -0.522,-0.716 -0.51,-1.159Zm5.11,7.919c-0.018,-0.974 0.193,-1.939 0.615,-2.817c0.385,-0.797 1.001,-1.459 1.768,-1.9c0.827,-0.457 1.76,-0.687 2.705,-0.664c1.4,-0.073 2.764,0.464 3.74,1.47c0.957,1.105 1.447,2.54 1.367,4l0,0.117c0.076,1.436 -0.417,2.846 -1.372,3.921c-0.975,0.994 -2.332,1.524 -3.723,1.454c-1.341,0.062 -2.651,-0.427 -3.623,-1.353c-0.947,-0.986 -1.476,-2.3 -1.475,-3.667l-0.002,-0.561Zm3.291,0.205c-0.054,0.745 0.105,1.49 0.459,2.148c0.297,0.45 0.811,0.71 1.35,0.684c1.172,-0 1.772,-0.902 1.8,-2.705l0,-0.332c0,-1.895 -0.605,-2.842 -1.816,-2.842c-1.1,-0 -1.696,0.817 -1.787,2.451l-0.006,0.596Zm11.377,-5.391l0.107,1.24c0.707,-0.946 1.838,-1.485 3.018,-1.436c0.93,-0.071 1.841,0.294 2.466,0.986c0.607,0.867 0.903,1.914 0.841,2.97l0,6.807l-3.3,-0l0,-6.67c0.034,-0.418 -0.08,-0.835 -0.322,-1.177c-0.318,-0.288 -0.746,-0.425 -1.172,-0.376c-0.582,-0.033 -1.137,0.261 -1.436,0.762l0,7.461l-3.291,-0l0,-10.566l3.089,-0.001Zm14.206,10.567c-0.146,-0.3 -0.251,-0.619 -0.312,-0.947c-0.613,0.767 -1.558,1.194 -2.539,1.147c-0.928,0.025 -1.834,-0.296 -2.539,-0.9c-0.676,-0.558 -1.061,-1.395 -1.045,-2.271c-0.059,-1.028 0.423,-2.015 1.27,-2.6c1.115,-0.655 2.401,-0.962 3.691,-0.879l1.016,-0l0,-0.559c0,-0.975 -0.42,-1.462 -1.26,-1.462c-0.05,-0.007 -0.101,-0.011 -0.151,-0.011c-0.565,-0 -1.03,0.465 -1.03,1.03c-0,0.046 0.003,0.093 0.009,0.139l-3.291,-0c-0.014,-0.994 0.476,-1.931 1.3,-2.487c0.976,-0.669 2.143,-1.005 3.325,-0.956c1.148,-0.064 2.281,0.286 3.193,0.986c0.788,0.673 1.23,1.669 1.2,2.705l0,4.678c-0.031,0.768 0.123,1.531 0.449,2.227l0,0.16l-3.286,-0Zm-2.061,-2.148c0.359,0.014 0.714,-0.078 1.021,-0.264c0.242,-0.147 0.442,-0.354 0.581,-0.6l0,-1.688l-0.957,-0c-1.146,-0 -1.719,0.514 -1.719,1.543c-0.011,0.275 0.099,0.541 0.3,0.728c0.212,0.191 0.49,0.291 0.775,0.281l-0.001,-0Zm10.196,2.148l-3.3,-0l0,-15l3.3,-0l0,15Z" style="fill:#12263f;fill-rule:nonzero;"/></g></g></svg>